<?xml version="1.0" standalone="no"?>
<!DOCTYPE svg PUBLIC "-//W3C//DTD SVG 1.1//EN" "http://www.w3.org/Graphics/SVG/1.1/DTD/svg11.dtd" >
<svg xmlns="http://www.w3.org/2000/svg">
<metadata>Generated by IcoMoon</metadata>
<defs>
<font id="icomoon" horiz-adv-x="1024">
<font-face units-per-em="1024" ascent="960" descent="-64" />
<missing-glyph horiz-adv-x="1024" />
<glyph unicode="&#x20;" horiz-adv-x="512" d="" />
<glyph unicode="&#xe900;" glyph-name="lock" d="M804.571 594.286v73.143c0.061 2.207 0.096 4.805 0.096 7.411 0 157.543-127.714 285.257-285.257 285.257-2.606 0-5.204-0.035-7.793-0.104l0.382 0.008c-2.207 0.061-4.805 0.096-7.411 0.096-157.543 0-285.257-127.714-285.257-285.257 0-2.606 0.035-5.204 0.104-7.793l-0.008 0.382v-73.143h-146.286v-512c6.406-78.079 68.207-139.879 145.713-146.248l0.573-0.038h585.143c78.079 6.406 139.879 68.207 146.248 145.713l0.038 0.573v512zM292.571 667.429c0 121.187 98.242 219.429 219.429 219.429s219.429-98.242 219.429-219.429v0-73.143h-438.857zM877.714 82.286c-11.191-34.96-38.183-61.951-72.353-72.924l-0.79-0.219h-585.143c-34.96 11.191-61.951 38.183-72.924 72.353l-0.219 0.79v438.857h731.429zM438.857 301.714h146.286v-146.286h-146.286v146.286z" />
<glyph unicode="&#xe901;" glyph-name="file-1" d="M547.417 553h289.627c0.215-0.011 0.467-0.017 0.72-0.017 8.235 0 14.911 6.676 14.911 14.911s-6.676 14.911-14.911 14.911c-0.253 0-0.505-0.006-0.755-0.019l0.035 0.001h-289.627c-0.215 0.011-0.467 0.017-0.72 0.017-8.235 0-14.911-6.676-14.911-14.911s6.676-14.911 14.911-14.911c0.253 0 0.505 0.006 0.755 0.019l-0.035-0.001zM547.417 638.536h289.627c8.235 0 14.911 6.676 14.911 14.911s-6.676 14.911-14.911 14.911h-289.627c-8.235 0-14.911-6.676-14.911-14.911s6.676-14.911 14.911-14.911v0zM399.875 530.721c27.461 0.020 49.717 22.276 49.737 49.735v220.29c-0.020 27.461-22.276 49.717-49.735 49.737h-177.713c-27.461-0.020-49.717-22.276-49.737-49.735v-220.324c0.040-27.446 22.288-49.682 49.735-49.702h0.002zM222.164 820.8h177.606c10.991-0.020 19.896-8.924 19.916-19.914v-178.199c-13.756 15.596-30.632 28.096-49.689 36.582l-0.917 0.365c7.67 11.103 12.252 24.851 12.252 39.669 0 38.852-31.496 70.347-70.347 70.347s-70.347-31.496-70.347-70.347c0-14.818 4.582-28.566 12.405-39.905l-0.154 0.236c-19.946-8.86-36.798-21.358-50.4-36.789l-0.136-0.158v178.058c0 0.031 0 0.068 0 0.105 0 10.969 8.853 19.871 19.804 19.95h0.007zM270.511 699.151c0 22.401 18.16 40.561 40.561 40.561s40.561-18.16 40.561-40.561c0-22.401-18.16-40.561-40.561-40.561v0c-22.393 0.020-40.541 18.168-40.561 40.559v0.002zM204.786 570.865c13.382 31.906 39.842 56.056 72.489 66.033l0.812 0.214c9.559-5.198 20.932-8.254 33.019-8.254s23.46 3.056 33.389 8.437l-0.37-0.184c33.46-10.19 59.92-34.34 73.020-65.491l0.282-0.755c-3.419-6.219-9.908-10.376-17.371-10.427h-177.891c-7.471 0.051-13.959 4.208-17.326 10.324l-0.052 0.103zM1005.961 186.839c8.235 0 14.911 6.676 14.911 14.911v0 152.86c-0.037 32.787-26.025 59.492-58.526 60.682l-0.109 0.003v288.202c0 0.033 0 0.072 0 0.111 0 22.316-9.105 42.505-23.802 57.057l-0.007 0.007-171.976 172.184c-14.544 14.621-34.678 23.67-56.925 23.67-0.075 0-0.151 0-0.226 0h-566.382c-44.618-0.059-80.77-36.223-80.809-80.84v-335.857c0-8.235 6.676-14.911 14.911-14.911s14.911 6.676 14.911 14.911v0 335.853c0.020 28.159 22.832 50.983 50.984 51.023h566.537c0.032 0 0.069 0 0.107 0 4.368 0 8.608-0.545 12.657-1.571l-0.355 0.076v-153.52c0.118-30.665 24.945-55.493 55.599-55.611h153.462c0.95-3.695 1.495-7.937 1.495-12.306 0-0.036 0-0.072 0-0.108v0.006-288.237h-566.707c-14.204 0.001-26.957 6.217-35.686 16.077l-0.044 0.050-24.121 27.319c-14.263 16.104-34.991 26.205-58.078 26.207h-183.585c-33.531-0.040-60.7-27.221-60.72-60.753v-422.434c0-34.552 28.010-62.562 62.562-62.562v0h892.55c34.552 0 62.562 28.010 62.562 62.562v0 130.268c0 8.235-6.676 14.911-14.911 14.911s-14.911-6.676-14.911-14.911v0-130.164c-0.020-17.997-14.604-32.582-32.6-32.602h-892.691c-17.997 0.020-32.582 14.604-32.602 32.6v422.33c0.020 17.076 13.857 30.914 30.932 30.933h183.517c14.204-0.001 26.957-6.217 35.686-16.077l0.044-0.050 24.33-27.423c14.263-16.104 34.991-26.205 58.078-26.207h594.339c17.076-0.020 30.914-13.857 30.933-30.932v-152.931c0-8.235 6.676-14.911 14.911-14.911v0zM751.508 771.689v133.952l159.881-159.881h-133.917c-14.319 0.020-25.924 11.612-25.963 25.925v0.004z" />
<glyph unicode="&#xe902;" glyph-name="bag" d="M879.222 730.466h-175.813v50.255c-0.045 55.492-45.018 100.465-100.505 100.51h-201.181c-55.39-0.179-100.229-45.101-100.273-100.505v-50.259h-175.813c-69.27-0.223-125.369-56.295-125.637-125.532v-502.416c0.223-69.298 56.34-125.414 125.616-125.637h753.685c69.298 0.223 125.414 56.34 125.637 125.616v502.411c-0.268 69.291-56.412 125.38-125.699 125.558h-0.017zM351.468 780.721c0 27.755 22.5 50.255 50.255 50.255h201.177c27.755 0 50.255-22.5 50.255-50.255v0-50.255h-301.45zM954.368 102.439c-0.045-41.614-33.768-75.337-75.378-75.382h-753.353c-41.614 0.045-75.337 33.768-75.382 75.378v325.242l293.494-97.831c2.351-0.791 5.059-1.251 7.872-1.26h301.454c2.818 0.008 5.526 0.468 8.058 1.313l-0.181-0.052 293.494 97.831zM954.368 478.956c-0.313 0.014-0.68 0.022-1.049 0.022-2.433 0-4.783-0.353-7.002-1.012l0.174 0.044-297.433-99.17h-293.258l-297.59 99.17c-2.048 0.614-4.402 0.967-6.838 0.967-0.365 0-0.729-0.008-1.091-0.024l0.052 0.002v126.031c0.045 41.614 33.768 75.337 75.378 75.382h753.668c41.614-0.045 75.337-33.768 75.382-75.378v-0.004z" />
<glyph unicode="&#xe903;" glyph-name="facebook" d="M1024 448c0 282.77-229.23 512-512 512s-512-229.23-512-512c0-282.77 229.23-512 512-512v0c3.019 0 6.001 0 8.984 0v398.703h-109.987v128.173h109.987v94.347c0 109.405 66.778 168.945 164.399 168.945 0.889 0.003 1.943 0.005 2.996 0.005 33.677 0 66.925-1.838 99.649-5.42l-4.043 0.359v-114.315h-67.287c-53.102 0-63.359-25.242-63.359-62.268v-81.654h126.936l-16.476-128.173h-110.46v-378.917c215.78 63.517 370.622 259.777 370.661 492.209v0.005z" />
<glyph unicode="&#xe904;" glyph-name="Instagram-" d="M610.021 448.036c0-54.115-43.869-97.985-97.985-97.985s-97.985 43.869-97.985 97.985c0 54.103 43.848 97.964 97.946 97.985h0.002c0.011 0 0.024 0 0.036 0 54.115 0 97.985-43.869 97.985-97.985v0zM741.176 621.419c-10.11 25.713-30.081 45.684-55.134 55.564l-0.66 0.229c-16.189 6.183-34.906 9.87-54.454 10.11l-0.103 0.001c-31.025 1.418-40.299 1.709-118.789 1.709s-87.801-0.291-118.789-1.709c-19.651-0.243-38.368-3.93-55.677-10.483l1.12 0.372c-25.711-10.114-45.68-30.083-55.564-55.134l-0.23-0.66c-6.182-16.189-9.87-34.906-10.11-54.454l-0.001-0.103c-1.418-30.988-1.709-40.299-1.709-118.789s0.291-87.801 1.709-118.789c0.239-19.65 3.927-38.368 10.483-55.675l-0.372 1.118c10.11-25.713 30.081-45.684 55.134-55.564l0.66-0.229c16.189-6.187 34.907-9.875 54.456-10.11l0.101-0.001c30.988-1.418 40.299-1.709 118.789-1.709s87.801 0.291 118.789 1.709c19.65 0.237 38.368 3.925 55.674 10.483l-1.117-0.372c25.713 10.11 45.684 30.081 55.564 55.134l0.229 0.66c6.181 16.189 9.868 34.906 10.11 54.453l0.001 0.104c1.418 31.025 1.709 40.299 1.709 118.789s-0.291 87.801-1.709 118.789c-0.237 19.65-3.925 38.368-10.483 55.674l0.372-1.117zM512.036 297.059c-83.383 0-150.978 67.595-150.978 150.978s67.595 150.978 150.978 150.978c83.383 0 150.978-67.595 150.978-150.978v0c0-83.383-67.595-150.978-150.978-150.978-0.013 0-0.026 0-0.038 0h0.002zM668.979 569.844c-19.485 0-35.28 15.796-35.28 35.28s15.796 35.28 35.28 35.28c19.485 0 35.28-15.796 35.28-35.28v0c0-0.043 0-0.094 0-0.146 0-19.485-15.796-35.28-35.28-35.28-0.013 0-0.026 0-0.039 0h0.002zM512 960c-282.77 0-512-229.23-512-512s229.23-512 512-512c282.77 0 512 229.23 512 512v0c-0.021 282.762-229.239 511.98-511.999 512h-0.001zM804.244 326.811c-0.534-25.768-5.504-50.219-14.173-72.838l0.498 1.477c-15.61-39.607-46.375-70.372-84.964-85.627l-1.018-0.355c-21.141-8.169-45.591-13.138-71.132-13.672l-0.228-0.004c-31.352-1.418-41.354-1.782-121.226-1.782s-89.874 0.327-121.226 1.782c-25.769 0.537-50.219 5.507-72.84 14.174l1.479-0.498c-39.607 15.61-70.372 46.375-85.627 84.964l-0.355 1.018c-8.173 21.141-13.143 45.592-13.672 71.134l-0.004 0.226c-1.455 31.352-1.782 41.391-1.782 121.226s0.327 89.874 1.782 121.226c0.522 25.764 5.479 50.217 14.136 72.839l-0.497-1.479c15.638 39.591 46.41 70.34 84.999 85.591l1.019 0.355c21.141 8.168 45.591 13.137 71.132 13.672l0.229 0.004c31.352 1.418 41.354 1.782 121.226 1.782s89.874-0.327 121.226-1.782c25.765-0.526 50.217-5.483 72.841-14.137l-1.48 0.497c39.605-15.614 70.368-46.377 85.627-84.964l0.355-1.018c8.172-21.141 13.142-45.592 13.672-71.134l0.004-0.227c1.418-31.352 1.782-41.354 1.782-121.226s-0.364-89.874-1.782-121.226z" />
<glyph unicode="&#xe905;" glyph-name="cross" d="M975.875 911.875v0c-7.168 7.15-17.061 11.571-27.987 11.571s-20.819-4.421-27.988-11.572l0.001 0.001-407.258-407.901-408.416 407.901c-7.175 7.188-17.094 11.635-28.051 11.635s-20.877-4.447-28.051-11.635l-0.001-0.001c-7.15-7.168-11.571-17.061-11.571-27.987s4.421-20.819 11.572-27.988l-0.001 0.001 407.901-408.545-407.901-407.258c-7.15-7.168-11.571-17.061-11.571-27.987s4.421-20.819 11.572-27.988l-0.001 0.001c7.168-7.15 17.061-11.571 27.987-11.571s20.819 4.421 27.988 11.572l-0.001-0.001 408.545 407.773 407.258-407.773c7.168-7.15 17.061-11.571 27.987-11.571s20.819 4.421 27.988 11.572l-0.001-0.001c7.15 7.168 11.571 17.061 11.571 27.987s-4.421 20.819-11.572 27.988l0.001-0.001-407.773 407.258 407.773 408.416c7.188 7.175 11.635 17.094 11.635 28.051s-4.447 20.877-11.635 28.051l-0.001 0.001z" />
<glyph unicode="&#xe907;" glyph-name="download" horiz-adv-x="1260" d="M1220.604 408.748c-21.758 0-39.396-17.638-39.396-39.396v-275.769c0-43.515-35.276-78.791-78.791-78.791v0h-945.495c-43.515 0-78.791 35.276-78.791 78.791v0 275.698c0 21.758-17.638 39.396-39.396 39.396s-39.396-17.638-39.396-39.396v0-275.698c0-87.030 70.552-157.583 157.583-157.583v0h945.495c87.030 0 157.583 70.552 157.583 157.583v0 275.698c0 21.758-17.638 39.396-39.396 39.396v0zM866.115 448.287c-7.13 7.133-16.981 11.545-27.863 11.545s-20.734-4.412-27.863-11.545l-180.647-180.647-180.36 180.647c-7.131 7.131-16.982 11.541-27.863 11.541-21.763 0-39.405-17.642-39.405-39.405 0-10.881 4.411-20.733 11.541-27.863l208.439-208.51c7.133-7.155 16.999-11.581 27.899-11.581s20.766 4.427 27.898 11.58l208.44 208.511c7.133 7.13 11.545 16.981 11.545 27.863s-4.412 20.734-11.545 27.863v0zM629.813 960.072c-21.758 0-39.396-17.638-39.396-39.396v0-630.187c0-21.758 17.638-39.396 39.396-39.396s39.396 17.638 39.396 39.396v0 630.33c-0.081 21.696-17.688 39.252-39.395 39.252 0 0 0 0 0 0v0z" />
<glyph unicode="&#xe908;" glyph-name="locationAll" d="M529.067-74.325l-21.504 24.064c-14.336 17.067-379.563 408.917-379.563 642.901 10.127 205.159 178.931 367.666 385.691 367.666 5.407 0 10.789-0.111 16.142-0.331l-0.767 0.025c4.149 0.159 9.022 0.25 13.917 0.25 207.048 0 376.185-162.314 387.109-366.638l0.041-0.972c0-233.984-365.227-627.541-379.563-642.901l-21.504-24.064zM529.067 909.653c-4.101 0.182-8.911 0.286-13.745 0.286-177.102 0-321.651-139.373-329.949-314.421l-0.028-0.745c0-183.723 264.533-496.384 343.723-586.069 78.763 89.685 343.723 400.128 343.723 586.069-8.326 175.793-152.875 315.166-329.977 315.166-4.834 0-9.644-0.104-14.427-0.309l0.682 0.023zM528.981 434.773c-84.165 0.481-152.265 68.581-152.746 152.7v0.046c0.481 84.165 68.581 152.265 152.7 152.746h0.046c84.165-0.481 152.265-68.581 152.746-152.7v-0.046c-0.481-84.165-68.581-152.265-152.7-152.746h-0.046zM528.981 683.008c-52.678-0.145-95.343-42.81-95.488-95.474v-0.014c0.145-52.678 42.81-95.343 95.474-95.488h0.014c52.678 0.145 95.343 42.81 95.488 95.474v0.014c-0.145 52.678-42.81 95.343-95.474 95.488h-0.014z" />
<glyph unicode="&#xe909;" d="M1024 448c0-282.77-229.23-512-512-512s-512 229.23-512 512c0 282.77 229.23 512 512 512s512-229.23 512-512z" />
<glyph unicode="&#xe90a;" d="M399.36 244.122c-0.019 0-0.042 0-0.064 0-11.094 0-21.137 4.501-28.402 11.776l-154.317 154.42c-7.85 7.362-12.74 17.799-12.74 29.379 0 22.226 18.017 40.243 40.243 40.243 11.554 0 21.97-4.869 29.31-12.667l0.019-0.021 125.952-126.054 299.93 299.827c7.285 7.285 17.35 11.792 28.467 11.792 22.234 0 40.259-18.024 40.259-40.259 0-11.117-4.506-21.182-11.792-28.467l-328.294-328.602c-7.223-7.033-17.101-11.371-27.992-11.371-0.203 0-0.406 0.002-0.608 0.005h0.031z" />
<glyph unicode="&#xe90b;" glyph-name="Group-6135" d="M39.385 960h157.538c21.752 0 39.385-17.633 39.385-39.385v-157.538c0-21.752-17.633-39.385-39.385-39.385h-157.538c-21.752 0-39.385 17.633-39.385 39.385v157.538c0 21.752 17.633 39.385 39.385 39.385zM39.385 644.923h157.538c21.752 0 39.385-17.633 39.385-39.385v-315.077c0-21.752-17.633-39.385-39.385-39.385h-157.538c-21.752 0-39.385 17.633-39.385 39.385v315.077c0 21.752 17.633 39.385 39.385 39.385zM39.385 172.308h157.538c21.752 0 39.385-17.633 39.385-39.385v-157.538c0-21.752-17.633-39.385-39.385-39.385h-157.538c-21.752 0-39.385 17.633-39.385 39.385v157.538c0 21.752 17.633 39.385 39.385 39.385zM354.462 960h315.077c21.752 0 39.385-17.633 39.385-39.385v-157.538c0-21.752-17.633-39.385-39.385-39.385h-315.077c-21.752 0-39.385 17.633-39.385 39.385v157.538c0 21.752 17.633 39.385 39.385 39.385zM354.462 644.923h315.077c21.752 0 39.385-17.633 39.385-39.385v-315.077c0-21.752-17.633-39.385-39.385-39.385h-315.077c-21.752 0-39.385 17.633-39.385 39.385v315.077c0 21.752 17.633 39.385 39.385 39.385zM354.462 172.308h315.077c21.752 0 39.385-17.633 39.385-39.385v-157.538c0-21.752-17.633-39.385-39.385-39.385h-315.077c-21.752 0-39.385 17.633-39.385 39.385v157.538c0 21.752 17.633 39.385 39.385 39.385zM827.077 960h157.538c21.752 0 39.385-17.633 39.385-39.385v-157.538c0-21.752-17.633-39.385-39.385-39.385h-157.538c-21.752 0-39.385 17.633-39.385 39.385v157.538c0 21.752 17.633 39.385 39.385 39.385zM827.077 644.923h157.538c21.752 0 39.385-17.633 39.385-39.385v-315.077c0-21.752-17.633-39.385-39.385-39.385h-157.538c-21.752 0-39.385 17.633-39.385 39.385v315.077c0 21.752 17.633 39.385 39.385 39.385zM827.077 172.308h157.538c21.752 0 39.385-17.633 39.385-39.385v-157.538c0-21.752-17.633-39.385-39.385-39.385h-157.538c-21.752 0-39.385 17.633-39.385 39.385v157.538c0 21.752 17.633 39.385 39.385 39.385z" />
<glyph unicode="&#xe90c;" d="M315.077 785.972l-233.637-408.864h467.273l-233.637 408.864zM315.077 881.231l315.077-551.385h-630.154l315.077 551.385z" />
<glyph unicode="&#xe90d;" d="M630.154 802.462h315.077c43.503 0 78.769-35.266 78.769-78.769v-393.846c0-43.503-35.266-78.769-78.769-78.769h-315.077c-43.503 0-78.769 35.266-78.769 78.769v393.846c0 43.503 35.266 78.769 78.769 78.769z" />
<glyph unicode="&#xe90e;" d="M630.154 778.831h315.077c30.452 0 55.138-24.686 55.138-55.138v-393.846c0-30.452-24.686-55.138-55.138-55.138h-315.077c-30.452 0-55.138 24.686-55.138 55.138v393.846c0 30.452 24.686 55.138 55.138 55.138z" />
<glyph unicode="&#xe90f;" d="M866.462 329.846c0-174.012-141.065-315.077-315.077-315.077s-315.077 141.065-315.077 315.077c0 174.012 141.065 315.077 315.077 315.077s315.077-141.065 315.077-315.077z" />
<glyph unicode="&#xe910;" d="M842.831 329.846c0-160.961-130.485-291.446-291.446-291.446s-291.446 130.485-291.446 291.446c0 160.961 130.485 291.446 291.446 291.446s291.446-130.485 291.446-291.446z" />
<glyph unicode="&#xe911;" glyph-name="colleagues" d="M522.56 512.128c-70.692 0-128 57.308-128 128s57.308 128 128 128c70.692 0 128-57.308 128-128v0c0-70.692-57.308-128-128-128v0zM522.56 725.376c-0.019 0-0.041 0-0.064 0-47.117 0-85.312-38.195-85.312-85.312s38.195-85.312 85.312-85.312c47.117 0 85.312 38.195 85.312 85.312 0 0.022 0 0.045 0 0.067v-0.003c0 0 0 0 0 0 0 47.107-38.151 85.303-85.241 85.376h-0.007zM671.872 320.32h-298.688c-11.77 0-21.312 9.542-21.312 21.312v0 42.624c0 94.198 76.362 170.56 170.56 170.56s170.56-76.362 170.56-170.56v-42.624c0 0 0-0.001 0-0.001 0-11.703-9.433-21.202-21.11-21.311h-0.010zM394.496 362.88h256v21.312c0 70.692-57.308 128-128 128s-128-57.308-128-128v0zM820.928 320.32h-596.992c0 0 0 0 0 0-11.77 0-21.312 9.542-21.312 21.312 0 0.022 0 0.045 0 0.067v-0.003 512c0.254 58.72 47.879 106.232 106.617 106.304h426.439c58.858-0.073 106.551-47.767 106.624-106.617v-512.007c-0.144-11.66-9.63-21.056-21.31-21.056-0.023 0-0.046 0-0.069 0h0.004zM244.928 362.944h554.368v490.432c0 35.346-28.654 64-64 64v0h-426.048c-35.346 0-64-28.654-64-64v0zM735.36-63.488h-426.112c-58.858 0.073-106.551 47.767-106.624 106.617v21.319c0 11.77 9.542 21.312 21.312 21.312v0h596.992c11.77 0 21.312-9.542 21.312-21.312v-21.312c-0.109-58.808-47.753-106.451-106.55-106.56h-0.010zM245.248 43.136c0-35.346 28.654-64 64-64v0h426.432c35.346 0 64 28.654 64 64v0zM672 832h-298.752c-35.346 0-64 28.654-64 64v0 42.688c0 11.77 9.542 21.312 21.312 21.312v0h384c0.038 0 0.083 0 0.128 0 11.77 0 21.312-9.542 21.312-21.312 0 0 0 0 0 0v0-42.688c0-35.346-28.654-64-64-64v0zM352 917.376v-21.376c0-11.77 9.542-21.312 21.312-21.312h298.688c11.66 0.145 21.056 9.63 21.056 21.31 0 0.001 0 0.001 0 0.002v0 21.376zM864 43.2h-682.688c-11.77 0-21.312 9.542-21.312 21.312v0 277.184c0 11.77 9.542 21.312 21.312 21.312v0h682.304c11.77 0 21.312-9.542 21.312-21.312v-277.184c0-0.019 0-0.041 0-0.064 0-11.77-9.542-21.312-21.312-21.312 0 0 0 0 0 0v0zM202.624 85.824h639.68v234.496h-639.68zM351.936 149.696c-35.346 0-64 28.654-64 64s28.654 64 64 64c35.346 0 64-28.654 64-64v0c0-35.346-28.654-64-64-64v0zM351.936 235.008c-11.77 0-21.312-9.542-21.312-21.312s9.542-21.312 21.312-21.312c11.77 0 21.312 9.542 21.312 21.312v0c0 0.019 0 0.041 0 0.064 0 11.77-9.542 21.312-21.312 21.312 0 0 0 0 0 0v0zM415.872 43.2h-128c-11.698 0.036-21.176 9.491-21.248 21.177v42.631c1.303 46.101 38.985 82.976 85.28 82.976s83.977-36.875 85.277-82.856l0.003-0.12v-42.624c-0.073-11.715-9.586-21.184-21.312-21.184 0 0 0 0 0 0v0zM309.248 85.824h85.376v21.312c0 23.558-19.098 42.656-42.656 42.656s-42.656-19.098-42.656-42.656v0zM543.808 43.2c-11.67 0.072-21.112 9.514-21.184 21.177v149.383h-21.312c-11.77 0-21.312 9.542-21.312 21.312s9.542 21.312 21.312 21.312h42.624c11.77 0 21.312-9.542 21.312-21.312v0-170.688c-0.072-11.715-9.586-21.184-21.312-21.184-0.045 0-0.090 0-0.135 0h0.007zM757.056 43.2c-0.019 0-0.042 0-0.064 0-11.725 0-21.239 9.469-21.312 21.177v119.239l-27.584-27.584c-3.857-3.858-9.186-6.244-15.072-6.244s-11.215 2.386-15.072 6.244v0l-27.328 27.584v-119.232c0-11.77-9.542-21.312-21.312-21.312s-21.312 9.542-21.312 21.312v0 170.688c0.176 11.635 9.649 21 21.31 21 5.808 0 11.074-2.323 14.918-6.092l-0.004 0.003 48.896-48.896 48.896 48.896c3.86 3.877 9.202 6.276 15.104 6.276 11.77 0 21.312-9.542 21.312-21.312 0-0.024 0-0.048 0-0.072v0.004-170.496c-0.073-11.715-9.586-21.184-21.312-21.184-0.023 0-0.045 0-0.068 0h0.004z" />
<glyph unicode="&#xe912;" d="M368.595 153.383c17.802-7.106 33.017-17.691 45.299-30.696l-0.574 0.563 0.928-0.338c4.833-8.124 6.102-18.193 2.644-27.694-2.555-7.020-7.286-12.618-13.154-16.312l0.077 0.050c-27.355-18.975-62.15-25.651-95.635-16.037l-0.339 0.102c-4.72 1.072-10.060 2.648-15.357 4.576-29.193 10.625-52.483 30.288-67.861 54.68l0.211-0.321c-9.863 13.848-13.673 31.405-9.554 48.528l0.069 0.264c6.254 17.183 25.099 19.236 41.102 17.226 17.064-2.271 35.945-6.876 54.568-13.634l57.576-20.956zM543.567 754.621c106.534-38.775 188.109-155.643 158.895-271.301-6.487-23.597-17.011-46.738-23.611-70.644-4.935-33.683-0.718-66.155 11.007-95.54l-0.087 0.223c5.643-22.216 5.484-46.704-1.693-70.577l-0.106-0.339-2.502-6.873c-0.077-0.215-0.169-0.47-0.261-0.724-11.495-31.583-33.651-56.205-60.924-71.281l0.183 0.104c-34.282-17.395-74.418-22.793-113.661-13.051l-0.694 0.187c-51.982 11.321-110.637 28.332-168.793 49.499s-114.021 45.838-167.447 73.689l6.327-3.109c-37.55 17.925-65.288 48.093-80.522 83.699l-0.047 0.112c-10.094 27.789-10.853 59.426 0.148 89.65 0.475 1.306 0.969 2.6 1.481 3.882l-0.074-0.188 2.502 6.873c9.923 23.186 25.322 42.123 44.111 56.104l-0.476-0.376c27.815 14.881 52.12 36.999 69.713 64.846l0.636 1.086c10.311 22.556 17.011 46.738 27.322 69.294 52.261 107.23 187.879 145.047 295.478 105.884v0z" />
<glyph unicode="&#xe913;" d="M1020.635 667.429c0-141.385-114.615-256-256-256s-256 114.615-256 256c0 141.385 114.615 256 256 256s256-114.615 256-256z" />
<glyph unicode="&#xe914;" glyph-name="morelike" d="M832 576c-0.014 0-0.031 0-0.047 0-31.185 0-60.624 7.474-86.624 20.729l1.083-0.501c-4.43 2.070-8.136 4.138-11.681 6.433l0.377-0.228c-57.292 33.932-95.105 95.428-95.105 165.757 0 106.039 85.961 192 192 192s192-85.961 192-192c0-70.745-38.262-132.554-95.221-165.861l-0.909-0.491c-3.067-1.979-6.662-3.963-10.391-5.708l-0.573-0.241c-24.671-12.541-53.797-19.889-84.64-19.889-0.094 0-0.189 0-0.283 0h0.015zM832 917.333c-82.417-0.014-149.224-66.829-149.224-149.248 0-54.907 29.65-102.89 73.813-128.809l0.702-0.381c2.183-1.428 4.745-2.871 7.401-4.152l0.419-0.182c19.425-9.795 42.339-15.532 66.592-15.532s47.167 5.736 67.459 15.926l-0.867-0.394c2.957 1.356 5.409 2.688 7.765 4.161l-0.286-0.167c45.363 26.181 75.404 74.432 75.404 129.7 0 82.403-66.781 149.208-149.174 149.248h-0.004zM831.66 704c-46.941 0-84.993 38.053-84.993 84.993s38.053 84.993 84.993 84.993c46.941 0 84.993-38.053 84.993-84.993v0c0-46.941-38.053-84.993-84.993-84.993v0zM831.66 832.17c-23.47 0-42.497-19.026-42.497-42.497s19.026-42.497 42.497-42.497c23.47 0 42.497 19.026 42.497 42.497v0c0 23.47-19.026 42.497-42.497 42.497v0zM832 576c-0.014 0-0.031 0-0.047 0-31.185 0-60.624 7.474-86.624 20.729l1.083-0.501c-4.431 2.071-8.136 4.139-11.681 6.433l0.377-0.229c-5.826 3.796-9.654 10.235-9.774 17.576v19.991c0 58.91 47.756 106.667 106.667 106.667s106.667-47.756 106.667-106.667v0-19.973c0-0.001 0-0.002 0-0.003 0-7.487-3.857-14.073-9.692-17.88l-0.082-0.050c-3.339-2.185-7.24-4.366-11.289-6.284l-0.61-0.26c-24.494-12.331-53.383-19.551-83.958-19.551-0.364 0-0.727 0.001-1.091 0.003h0.056zM768 633.116c18.745-9.021 40.757-14.292 64-14.292s45.255 5.271 64.905 14.683l-0.905-0.391v6.884c0 35.346-28.654 64-64 64s-64-28.654-64-64v0zM917.333 620.027v0zM192 575.66c-31.239 0.106-60.681 7.697-86.66 21.070l1.071-0.501c-4.431 2.071-8.136 4.139-11.681 6.433l0.377-0.229c-57.292 33.932-95.105 95.428-95.105 165.757 0 106.039 85.961 192 192 192s192-85.961 192-192c0-70.745-38.262-132.554-95.221-165.861l-0.909-0.491c-3.067-1.979-6.662-3.963-10.391-5.708l-0.573-0.241c-24.671-12.541-53.797-19.889-84.64-19.889-0.094 0-0.189 0-0.283 0h0.015zM192 917.503c-0.080 0-0.176 0-0.271 0-82.428 0-149.248-66.821-149.248-149.248 0-55.027 29.78-103.099 74.102-128.978l0.708-0.382c2.183-1.428 4.745-2.871 7.401-4.152l0.419-0.182c19.425-9.795 42.339-15.532 66.592-15.532s47.167 5.736 67.459 15.926l-0.867-0.394c2.957 1.356 5.409 2.688 7.765 4.161l-0.286-0.167c45.363 26.181 75.404 74.432 75.404 129.7 0 82.403-66.781 149.208-149.174 149.248h-0.004zM191.66 704c-46.941 0-84.993 38.053-84.993 84.993s38.053 84.993 84.993 84.993c46.941 0 84.993-38.053 84.993-84.993v0c0-46.941-38.053-84.993-84.993-84.993v0zM191.66 832.17c-23.47 0-42.497-19.026-42.497-42.497s19.026-42.497 42.497-42.497c23.47 0 42.497 19.026 42.497 42.497v0c0 23.47-19.026 42.497-42.497 42.497v0zM192 576c-0.014 0-0.031 0-0.047 0-31.185 0-60.624 7.474-86.624 20.729l1.083-0.501c-4.431 2.071-8.136 4.139-11.681 6.433l0.377-0.229c-5.917 3.857-9.774 10.443-9.774 17.93 0 0.001 0 0.002 0 0.003v0 19.633c0 58.91 47.756 106.667 106.667 106.667s106.667-47.756 106.667-106.667v0-19.633c0-0.001 0-0.002 0-0.003 0-7.487-3.857-14.073-9.692-17.88l-0.082-0.050c-3.339-2.185-7.24-4.366-11.289-6.284l-0.61-0.26c-24.671-12.541-53.797-19.889-84.64-19.889-0.124 0-0.248 0-0.372 0h0.019zM127.83 633.116c18.745-9.021 40.757-14.292 64-14.292s45.255 5.271 64.905 14.683l-0.905-0.391v6.884c0 35.346-28.654 64-64 64s-64-28.654-64-64v0zM277.163 620.367v0zM831.83 64c-46.941 0-84.993 38.053-84.993 84.993s38.053 84.993 84.993 84.993c46.941 0 84.993-38.053 84.993-84.993v0c0 0 0 0 0 0 0-46.881-37.956-84.896-84.814-84.993h-0.009zM831.83 192c-23.47 0-42.497-19.026-42.497-42.497s19.026-42.497 42.497-42.497c23.47 0 42.497 19.026 42.497 42.497v0c0 0 0 0 0 0 0 23.41-18.93 42.4-42.317 42.496h-0.009zM832-64c-0.032 0-0.070 0-0.108 0-31.164 0-60.583 7.475-86.561 20.729l1.080-0.5c-4.431 2.071-8.136 4.139-11.681 6.433l0.377-0.229c-5.917 3.857-9.774 10.443-9.774 17.93 0 0.001 0 0.002 0 0.003v0 19.633c0 58.91 47.756 106.667 106.667 106.667s106.667-47.756 106.667-106.667v0-19.633c0-0.001 0-0.002 0-0.003 0-7.487-3.857-14.073-9.692-17.88l-0.082-0.050c-3.328-2.168-7.228-4.349-11.272-6.275l-0.627-0.269c-24.664-12.541-53.784-19.889-84.62-19.889-0.131 0-0.262 0-0.393 0h0.020zM768-6.884c18.746-9.016 40.758-14.284 64-14.284s45.254 5.268 64.906 14.674l-0.906-0.391v6.884c0 35.346-28.654 64-64 64s-64-28.654-64-64v0zM917.333-19.633v0zM191.66 64c-46.941 0-84.993 38.053-84.993 84.993s38.053 84.993 84.993 84.993c46.941 0 84.993-38.053 84.993-84.993v0c0-46.941-38.053-84.993-84.993-84.993v0zM191.66 192.17c-23.47 0-42.497-19.026-42.497-42.497s19.026-42.497 42.497-42.497c23.47 0 42.497 19.026 42.497 42.497v0c0 23.47-19.026 42.497-42.497 42.497v0zM192-64c-0.032 0-0.070 0-0.108 0-31.164 0-60.583 7.475-86.561 20.729l1.080-0.5c-4.431 2.071-8.136 4.139-11.681 6.433l0.377-0.229c-5.826 3.796-9.654 10.235-9.774 17.576v19.651c0 58.91 47.756 106.667 106.667 106.667s106.667-47.756 106.667-106.667v0-19.633c0-0.001 0-0.002 0-0.003 0-7.487-3.857-14.073-9.692-17.88l-0.082-0.050c-3.328-2.168-7.228-4.349-11.272-6.275l-0.627-0.269c-24.488-12.331-53.37-19.551-83.939-19.551-0.371 0-0.741 0.001-1.112 0.003h0.057zM127.83-6.799c18.746-9.016 40.758-14.284 64-14.284s45.254 5.268 64.906 14.674l-0.906-0.391v6.884c0 35.346-28.654 64-64 64s-64-28.654-64-64v0zM277.333-19.973v0zM832-64.34c-0.032 0-0.070 0-0.108 0-31.164 0-60.583 7.475-86.561 20.729l1.080-0.5c-4.431 2.071-8.136 4.139-11.681 6.433l0.377-0.229c-57.292 33.932-95.105 95.428-95.105 165.757 0 106.039 85.961 192 192 192s192-85.961 192-192c0-70.745-38.262-132.554-95.221-165.861l-0.909-0.491c-3.067-1.979-6.662-3.963-10.391-5.708l-0.573-0.241c-24.469-12.331-53.331-19.551-83.879-19.551-0.362 0-0.723 0.001-1.085 0.003h0.055zM832 276.993c-82.417-0.014-149.224-66.829-149.224-149.248 0-54.907 29.65-102.89 73.813-128.809l0.702-0.381c2.189-1.416 4.753-2.833 7.413-4.079l0.406-0.171c19.422-9.808 42.337-15.551 66.592-15.551s47.17 5.744 67.457 15.945l-0.864-0.394c2.943 1.339 5.396 2.672 7.747 4.152l-0.268-0.157c45.447 26.16 75.553 74.457 75.553 129.785 0 82.428-66.821 149.248-149.248 149.248-0.028 0-0.056 0-0.084 0h0.005zM661.333 170.667h-128c-10.935 1.008-19.431 10.136-19.431 21.248s8.496 20.24 19.347 21.242l0.084 0.006h128c0.119-0.003 0.26-0.004 0.401-0.004 1.981 0 3.89 0.312 5.679 0.891l-0.131-0.036c2.162 0.808 4.66 1.276 7.267 1.276 11.783 0 21.334-9.552 21.334-21.334 0-9.175-5.792-16.998-13.92-20.010l-0.148-0.048c-5.773-2.054-12.431-3.24-19.366-3.24-0.393 0-0.785 0.004-1.175 0.011l0.059-0.001zM703.83 218.858c-10.764 0.036-19.648 8.039-21.066 18.418l-0.012 0.111c-1.427 10.508-10.303 18.533-21.070 18.613h-85.001c-0.57-0.054-1.233-0.085-1.902-0.085-11.782 0-21.333 9.551-21.333 21.333s9.551 21.333 21.333 21.333c0.67 0 1.332-0.031 1.986-0.091l-0.084 0.006h84.993c32.345-0.142 59.037-24.162 63.367-55.333l0.038-0.337c0.119-0.846 0.187-1.824 0.187-2.818 0-10.799-8.024-19.724-18.435-21.138l-0.11-0.012zM661.333 256h-84.993c-10.935 1.008-19.431 10.136-19.431 21.248s8.496 20.24 19.347 21.242l0.084 0.006h84.993c10.935 1.008 19.431 10.136 19.431 21.248s-8.496 20.24-19.347 21.242l-0.084 0.006h-84.993c-10.935 1.008-19.431 10.136-19.431 21.248s8.496 20.24 19.347 21.242l0.084 0.006h84.993c35.346 0 64-28.654 64-64s-28.654-64-64-64v0zM661.333 341.333h-84.993c-0.57-0.054-1.233-0.085-1.902-0.085-11.782 0-21.333 9.551-21.333 21.333s9.551 21.333 21.333 21.333c0.67 0 1.332-0.031 1.986-0.091l-0.084 0.006h84.993c0.57-0.054 1.233-0.085 1.902-0.085 11.782 0 21.333 9.551 21.333 21.333s-9.551 21.333-21.333 21.333c-0.67 0-1.332-0.031-1.986-0.091l0.084 0.006h-84.993c-10.935 1.008-19.431 10.136-19.431 21.248s8.496 20.24 19.347 21.242l0.084 0.006h84.993c0.57-0.054 1.233-0.085 1.902-0.085 11.782 0 21.333 9.551 21.333 21.333s-9.551 21.333-21.333 21.333c-0.67 0-1.332-0.031-1.986-0.091l0.084 0.006h-84.993c-11.782 0-21.333 9.551-21.333 21.333v0 118.651c0 0.048 0 0.106 0 0.163 0 17.321-14.041 31.363-31.363 31.363-12.273 0-22.9-7.050-28.051-17.321l-0.082-0.181-70.714-141.514c-3.585-7.042-10.78-11.781-19.081-11.781-11.787 0-21.343 9.555-21.343 21.343 0 3.486 0.836 6.777 2.318 9.683l-0.056-0.121 70.714 141.514c12.468 24.397 37.422 40.81 66.21 40.81 40.877 0 74.025-33.093 74.114-73.949v-96.561h64c35.337-0.012 63.978-28.661 63.978-64 0-16.42-6.184-31.397-16.35-42.726l0.053 0.060c10.113-11.27 16.297-26.246 16.297-42.667 0-35.339-28.642-63.988-63.977-64h-0.001zM533.333 170.667h-128c-11.782 0-21.333 9.551-21.333 21.333v0 341.333c0 11.782 9.551 21.333 21.333 21.333v0c11.782 0 21.333-9.551 21.333-21.333v0-320h106.667c10.935-1.008 19.431-10.136 19.431-21.248s-8.496-20.24-19.347-21.242l-0.084-0.006zM192-64c-0.032 0-0.070 0-0.108 0-31.164 0-60.583 7.475-86.561 20.729l1.080-0.5c-4.431 2.071-8.136 4.139-11.681 6.433l0.377-0.229c-57.335 33.901-95.185 95.408-95.185 165.755 0 105.992 85.923 191.915 191.915 191.915 57.333 0 108.794-25.141 143.961-64.999l0.18-0.208c29.758-33.486 47.937-77.841 47.937-126.442 0-0.159 0-0.319-0.001-0.478v0.025c-0.048-70.633-38.263-132.33-95.135-165.587l-0.908-0.49c-3.067-1.979-6.662-3.963-10.391-5.708l-0.573-0.241c-24.689-12.594-53.848-19.974-84.73-19.974-0.063 0-0.125 0-0.188 0h0.010zM192 277.333c-82.417-0.014-149.224-66.829-149.224-149.248 0-54.907 29.65-102.89 73.813-128.809l0.702-0.381c2.189-1.416 4.753-2.833 7.413-4.079l0.406-0.171c19.422-9.808 42.337-15.551 66.592-15.551s47.17 5.744 67.457 15.945l-0.864-0.394c2.943 1.339 5.396 2.672 7.747 4.152l-0.268-0.157c45.442 26.204 75.539 74.525 75.539 129.875 0 20.152-3.989 39.372-11.221 56.914l0.363-0.993c-6.848 16.333-15.772 30.382-26.655 42.654l0.137-0.158c-27.447 30.975-67.328 50.401-111.746 50.401-0.067 0-0.134 0-0.201 0h0.010zM405.333 170.667h-55.076c-0.007 0-0.015 0-0.023 0-8.903 0-16.532 5.454-19.729 13.202l-0.052 0.142c-6.851 16.332-15.775 30.381-26.656 42.655l0.138-0.158c-3.274 3.742-5.272 8.674-5.272 14.072 0 0.103 0.001 0.205 0.002 0.307v-0.015 292.462c0 11.782 9.551 21.333 21.333 21.333v0h84.993c11.782 0 21.333-9.551 21.333-21.333v0-341.333c0-0.001 0-0.002 0-0.003 0-11.663-9.358-21.139-20.975-21.33h-0.018zM364.027 213.163h19.633v299.007h-42.497v-263.479c8.419-10.307 16.020-21.9 22.349-34.251l0.515-1.106z" />
<glyph unicode="&#xe915;" d="M1024 448c0-282.77-229.23-512-512-512s-512 229.23-512 512c0 282.77 229.23 512 512 512s512-229.23 512-512z" />
<glyph unicode="&#xe916;" d="M759.125 665.907h-489.54c-35.764-0.039-64.746-29.021-64.785-64.781v-319.355c0.039-35.764 29.021-64.746 64.781-64.785h489.544c35.764 0.039 64.746 29.021 64.785 64.781v319.355c-0.039 35.764-29.021 64.746-64.781 64.785h-0.004zM643.959 441.515l154.010 120.832v-270.336zM269.517 639.966h489.54c21.437-0.039 38.805-17.407 38.844-38.84v-5.807l-249.105-195.652c-8.694-6.85-19.804-10.987-31.881-10.987s-23.187 4.137-31.991 11.071l0.111-0.084-254.43 195.721v5.734c0 0 0 0 0 0 0 21.491 17.421 38.912 38.912 38.912 0.024 0 0.048 0 0.072 0h-0.004zM389.257 440.627l-158.652-149.094v271.155zM759.057 242.654h-489.472c-0.006 0-0.012 0-0.019 0-13.925 0-26.138 7.327-32.995 18.336l-0.095 0.164 173.602 163.294 59.051-45.397c13.035-10.259 29.687-16.454 47.787-16.454s34.752 6.195 47.953 16.58l-0.167-0.126 58.709 46.080 168.823-163.84c-6.926-11.232-19.153-18.613-33.106-18.637h-0.004z" />
<glyph unicode="&#xe918;" glyph-name="gander" d="M528.043 464.794c0 0.061 0 0.134 0 0.206 0 141.285-114.301 255.874-255.478 256.34h-0.045c-0.135 0-0.295 0-0.455 0-36.891 0-71.939-7.892-103.547-22.079l1.602 0.643c-90.977-40.807-153.2-130.586-153.2-234.898 0-127.958 93.63-234.048 216.116-253.495l1.459-0.191v-71.953h-59.324v-75.981h59.529v-73.66h75.913v73.66h59.529v75.981h-59.529v71.953c123.854 19.58 217.429 125.577 217.429 253.429 0 0.016 0 0.031 0 0.047v-0.002zM829.508 667.955l48.265 86.289 27.307-54.613 67.516 34.133-70.861 140.902-156.399-12.015 5.803-75.776 60.689 4.642-48.265-86.289c-27.244 10.75-58.801 16.982-91.813 16.982-141.762 0-256.683-114.921-256.683-256.683s114.921-256.683 256.683-256.683c141.762 0 256.683 114.921 256.683 256.683 0 81.997-38.449 155.015-98.301 202.007l-0.555 0.42zM582.793 352.358h-223.505c-7.541 0-13.653 6.113-13.653 13.653v0 169.301c0 7.541 6.113 13.653 13.653 13.653v0h223.505c7.541 0 13.653-6.113 13.653-13.653v0-169.711c-0.228-7.362-6.251-13.244-13.647-13.244-0.002 0-0.004 0-0.006 0v0z" />
<glyph unicode="&#xe919;" d="M1024 448c0-282.77-229.23-512-512-512s-512 229.23-512 512c0 282.77 229.23 512 512 512s512-229.23 512-512z" />
<glyph unicode="&#xe91a;" d="M512.068 111.855l-13.653 15.633c-9.284 11.332-246.443 265.489-246.443 417.451 6.593 133.21 116.202 238.72 250.455 238.72 3.487 0 6.957-0.071 10.409-0.212l-0.495 0.016c2.685 0.103 5.839 0.161 9.007 0.161 134.432 0 244.248-105.39 251.336-238.054l0.027-0.631c0-151.893-237.158-407.484-246.443-417.451l-13.653-15.633zM512.068 750.831c-2.65 0.117-5.757 0.184-8.881 0.184-115.117 0-209.053-90.686-214.266-204.515l-0.017-0.469c0-119.262 172.032-322.287 223.164-380.518 51.132 58.231 223.164 259.823 223.164 380.518-5.23 114.298-99.166 204.984-214.283 204.984-3.123 0-6.231-0.067-9.322-0.199l0.441 0.015z" />
<glyph unicode="&#xe91b;" d="M512.068 442.402c-54.627 0.384-98.807 44.565-99.191 99.155v0.037c0.384 54.627 44.565 98.807 99.155 99.191h0.037c54.627-0.384 98.807-44.565 99.191-99.155v-0.037c-0.384-54.627-44.565-98.807-99.155-99.191h-0.037zM512.068 603.58c-34.187-0.116-61.87-27.799-61.986-61.975v-0.011c0.116-34.187 27.799-61.87 61.975-61.986h0.011c34.187 0.116 61.87 27.799 61.986 61.975v0.011c-0.116 34.187-27.799 61.87-61.975 61.986h-0.011z" />
<glyph unicode="&#xe91d;" glyph-name="phone" d="M914.261 960h-804.523c-60.607 0-109.739-49.132-109.739-109.739v0-804.523c0-60.607 49.132-109.739 109.739-109.739v0h804.523c60.607 0 109.739 49.132 109.739 109.739v0 804.523c0 60.607-49.132 109.739-109.739 109.739v0zM876.828 257.422l-34.133-148.594c-3.572-15.325-17.115-26.567-33.284-26.567-0.039 0-0.077 0-0.116 0h0.006c-0.034 0-0.074 0-0.114 0-366.104 0-662.894 296.77-662.926 662.866v0.003c0.586 15.988 11.543 29.263 26.315 33.335l0.252 0.059 148.594 34.133c2.278 0.511 4.92 0.839 7.626 0.909l0.054 0.001c13.83-0.722 25.594-8.893 31.419-20.549l0.097-0.215 68.608-159.915c1.605-3.98 2.612-8.589 2.786-13.411l0.002-0.072c-0.604-10.532-5.316-19.858-12.544-26.484l-0.029-0.026-86.642-70.884c53.519-111.668 141.503-199.67 249.977-251.835l3.179-1.378 70.884 86.585c6.653 7.256 15.978 11.968 26.406 12.568l0.104 0.005c4.893-0.173 9.502-1.181 13.757-2.885l-0.275 0.097 159.972-68.551c11.88-5.913 20.055-17.683 20.761-31.427l0.004-0.090c-0.059-2.753-0.387-5.396-0.96-7.946l0.050 0.266z" />
<glyph unicode="&#xe91e;" glyph-name="search" d="M1011.764 10.085l-284.774 287.355c54.705 68.54 87.78 156.439 87.78 252.064 0 224.115-181.681 405.795-405.795 405.795s-405.795-181.681-405.795-405.795c0-224.115 181.681-405.795 405.795-405.795 97.604 0 187.16 34.459 257.166 91.876l-0.713-0.567 282.862-285.538c7.993-8.399 19.255-13.623 31.738-13.623 11.674 0 22.281 4.569 30.13 12.017l-0.019-0.018c8.444 8.044 13.696 19.374 13.696 31.93 0 11.747-4.596 22.421-12.089 30.321l0.018-0.020zM408.185 231.671c-176.946 0.030-320.377 143.48-320.377 320.43 0 176.969 143.461 320.43 320.43 320.43s320.43-143.461 320.43-320.43c0-88.474-35.857-168.573-93.831-226.557v0c-57.683-57.987-137.535-93.874-225.768-93.874-0.311 0-0.622 0-0.934 0.001h0.048z" />
<glyph unicode="&#xe91f;" glyph-name="email" d="M1024 592.896c0.043 1.181 0.068 2.567 0.068 3.96 0 37.8-18.089 71.375-46.084 92.54l-0.292 0.211-465.692 270.393-465.692-270.393c-28.326-22.686-46.309-57.269-46.309-96.051 0-0.232 0.001-0.464 0.002-0.695v0.036-543.118c-0.158-2.176-0.248-4.715-0.248-7.275 0-55.819 42.784-101.645 97.349-106.474l0.407-0.029h828.985c54.971 4.858 97.755 50.684 97.755 106.503 0 2.56-0.090 5.099-0.267 7.613l0.019-0.338zM512 319.829l-391.68 298.837 391.68 227.556 391.68-227.556z" />
<glyph unicode="&#xe920;" glyph-name="locationblackdark" d="M500.622 960c-197.939 0-358.4-160.461-358.4-358.4v0c0-268.8 358.4-665.6 358.4-665.6s358.4 396.8 358.4 665.6c0 197.939-160.461 358.4-358.4 358.4v0zM500.622 473.6c-70.692 0-128 57.308-128 128s57.308 128 128 128c70.692 0 128-57.308 128-128v0c-0.032-70.679-57.32-127.968-127.997-128h-0.003z" />
<glyph unicode="&#xe921;" glyph-name="watch-" d="M247.15 230.443l0.055 0.055c13.317 13.317 34.908 13.317 48.225 0l0.055-0.055c13.317-13.317 13.317-34.908 0-48.225l-0.055-0.055c-13.317-13.317-34.908-13.317-48.225 0l-0.055 0.055c-13.317 13.317-13.317 34.908 0 48.225zM728.406 229.131l0.055 0.055c13.317 13.317 34.908 13.317 48.225 0l0.055-0.055c13.317-13.317 13.317-34.908 0-48.225l-0.055-0.055c-13.317-13.317-34.908-13.317-48.225 0l-0.055 0.055c-13.317 13.317-13.317 34.908 0 48.225zM247.227 713.010l0.055 0.055c13.317 13.317 34.908 13.317 48.225 0l0.055-0.055c13.317-13.317 13.317-34.908 0-48.225l-0.055-0.055c-13.317-13.317-34.908-13.317-48.225 0l-0.055 0.055c-13.317 13.317-13.317 34.908 0 48.225zM728.406 711.699l0.055 0.055c13.317 13.317 34.908 13.317 48.225 0l0.055-0.055c13.317-13.317 13.317-34.908 0-48.225l-0.055-0.055c-13.317-13.317-34.908-13.317-48.225 0l-0.055 0.055c-13.317 13.317-13.317 34.908 0 48.225zM511.961-64c-282.748 0-511.961 229.213-511.961 511.961s229.213 511.961 511.961 511.961c282.748 0 511.961-229.213 511.961-511.961v0c0-282.748-229.213-511.961-511.961-511.961v0zM511.961 891.723c-245.083 0-443.762-198.679-443.762-443.762s198.679-443.762 443.762-443.762c245.083 0 443.762 198.679 443.762 443.762v0c0 245.083-198.679 443.762-443.762 443.762v0zM546.138 413.862h-273.108c0 0 0 0 0 0-18.833 0-34.1 15.267-34.1 34.1 0 0.027 0 0.054 0 0.081v-0.004c0 18.833 15.267 34.1 34.1 34.1v0h205.062v273.108c0 0 0 0.001 0 0.001 0 18.751 15.135 33.968 33.856 34.099h0.012c18.833 0 34.1-15.267 34.1-34.1v0z" />
<glyph unicode="&#xe922;" glyph-name="modernbag" d="M725.358 853.358c-0.083 58.889-47.821 106.601-106.711 106.642h-213.289c-58.895-0.042-106.632-47.753-106.715-106.634v-64.008h-298.642v-362.715h42.642v-490.642h938.715v490.642h42.642v362.715h-298.642zM341.358 853.358c0.042 35.33 28.671 63.958 63.996 64h213.288c35.33-0.042 63.958-28.671 64-63.996v-64.004h-341.285zM85.358 83.456c53.683-9.389 95.424-51.13 104.702-104.045l0.112-0.769h-104.814zM833.829-21.358c9.408 53.633 51.107 95.332 103.971 104.628l0.77 0.112v-104.741zM938.642 126.171c-77.276-10.1-137.795-70.619-147.803-147.032l-0.092-0.862h-557.568c-10.118 77.243-70.589 137.739-146.955 147.802l-0.867 0.093v299.886h298.642v-128h106.642v-42.642h42.642v42.642h106.715v128.585h298.642zM490.642 384v-42.642h-64v85.285h170.715v-85.285h-64v42.642zM981.285 469.358h-938.642v277.285h938.715z" />
<glyph unicode="&#xe923;" glyph-name="paper" d="M207.141 826.002h-123.026v-861.184h697.125v123.026h123.026v861.184h-697.125zM740.206 5.851h-615.058v779.118h471.552v-143.141h143.506zM637.806 756.005l73.509-73.509h-73.582v73.509zM248.174 907.995h615.131v-779.118h-82.066v541.257l-155.867 155.867h-377.198zM432.713 682.496h-246.053v-246.053h246.053zM391.461 477.696h-163.767v163.767h163.767zM494.226 579.95h184.539v-41.033h-184.539zM494.226 477.477h184.539v-41.033h-184.539zM186.661 374.93h307.2v-41.033h-307.2zM555.666 374.93h123.026v-41.033h-123.026zM186.661 272.384h123.026v-41.033h-123.026zM371.2 272.384h307.2v-41.033h-307.2zM186.661 169.911h287.086v-41.033h-287.086zM535.186 169.911h143.506v-41.033h-143.506z" />
<glyph unicode="&#xe924;" glyph-name="linkedin" d="M512 960c-282.77 0-512-229.23-512-512s229.23-512 512-512c282.77 0 512 229.23 512 512v0c-0.021 282.762-229.239 511.98-511.999 512h-0.001zM363.205 186.017h-124.681v375.134h124.681zM300.864 612.362h-0.8c-1.155-0.073-2.504-0.115-3.863-0.115-35.896 0-64.996 29.1-64.996 64.996s29.1 64.996 64.996 64.996c2 0 3.979-0.090 5.933-0.267l-0.252 0.018c1.463 0.117 3.168 0.184 4.888 0.184 35.916 0 65.032-29.116 65.032-65.032s-29.116-65.032-65.032-65.032c-2.015 0-4.009 0.092-5.978 0.271l0.253-0.019zM812.864 186.017h-124.681v200.697c0 50.447-18.186 84.818-63.177 84.818-29.414-0.188-54.397-18.948-63.828-45.134l-0.15-0.476c-2.665-7.902-4.203-17.002-4.203-26.461 0-1.401 0.034-2.793 0.1-4.177l-0.007 0.195v-209.499h-124.681s1.637 339.963 0 375.134h124.681v-53.102c21.765 37.286 61.583 61.942 107.159 61.942 1.839 0 3.669-0.040 5.488-0.12l-0.259 0.009c82.054 0 143.558-53.611 143.558-168.836z" />
<glyph unicode="&#xe925;" glyph-name="people" d="M720.665 652.816c0.029 1.292 0.045 2.814 0.045 4.34 0 115.469-93.606 209.075-209.075 209.075s-209.075-93.606-209.075-209.075c0-115.453 93.58-209.049 209.028-209.075h0.002c0.564-0.006 1.231-0.009 1.898-0.009 113.568 0 205.795 91.372 207.176 204.613l0.001 0.13zM918.439-63.918h-93.195c-28.268 0-51.184 22.916-51.184 51.184s22.916 51.184 51.184 51.184v0h22.439c0.401-0.011 0.872-0.018 1.345-0.018 28.132 0 50.938 22.806 50.938 50.938 0 6.328-1.154 12.386-3.262 17.976l0.116-0.351c-72.025 142.587-217.367 238.655-385.147 238.655s-313.121-96.068-384.019-236.197l-1.128-2.458c-1.993-5.239-3.146-11.297-3.146-17.625 0-28.132 22.806-50.938 50.938-50.938 0.473 0 0.944 0.006 1.414 0.019l-0.069-0.001h22.439c28.268 0 51.184-22.916 51.184-51.184s-22.916-51.184-51.184-51.184v0h-93.277c-0.683-0.016-1.488-0.026-2.295-0.026-56.536 0-102.367 45.831-102.367 102.367 0 6.611 0.627 13.076 1.824 19.338l-0.102-0.64c36.846 166.617 155.092 299.141 309.936 355.407l3.39 1.077c-71.432 56.040-116.962 142.285-117.19 239.174v0.038c4.082 170.375 143.165 306.93 314.142 306.93 154.149 0 282.373-110.997 309.106-257.427l0.291-1.923c2.313-14.085 3.635-30.318 3.635-46.859 0-97.151-45.598-183.652-116.56-239.269l-0.662-0.5c158.234-57.343 276.48-189.867 312.722-353.245l0.603-3.239c1.095-5.622 1.722-12.086 1.722-18.698 0-56.536-45.831-102.367-102.367-102.367-0.807 0-1.612 0.009-2.415 0.028l0.119-0.002zM668.335-12.571c-0.323-28.338-23.37-51.186-51.754-51.186-0.174 0-0.348 0.001-0.521 0.003h-209.049c-28.268 0-51.184 22.916-51.184 51.184s22.916 51.184 51.184 51.184v0h209.075c0.147 0.002 0.321 0.002 0.495 0.002 28.384 0 51.431-22.848 51.753-51.156v-0.030z" />
<glyph unicode="&#xe926;" glyph-name="bank" d="M790.193 807.522l0.532-0.374c2.345-1.595 5.24-2.546 8.356-2.546 8.276 0 14.986 6.709 14.986 14.986s-6.709 14.986-14.986 14.986c-8.276 0-14.986-6.709-14.986-14.986 0-4.931 2.382-9.306 6.058-12.037l0.040-0.028zM790.961 90.585c-3.684-2.789-6.039-7.165-6.039-12.091 0-8.353 6.771-15.124 15.124-15.124 0.005 0 0.009 0 0.014 0h-0.001c0.010 0 0.022 0 0.034 0 3.338 0 6.42 1.094 8.907 2.943l-0.040-0.028 0.532 0.374c3.559 2.794 5.825 7.096 5.825 11.927 0 8.353-6.771 15.124-15.124 15.124-3.491 0-6.706-1.183-9.266-3.17l0.034 0.026zM454.4 896.197c0.702 0.008 1.384 0.057 2.054 0.147l-0.085-0.009h0.197c7.215 1.236 12.637 7.444 12.637 14.918 0 8.353-6.771 15.124-15.124 15.124-0.511 0-1.016-0.025-1.514-0.075l0.063 0.005h-0.197c-7.431-1.038-13.088-7.351-13.088-14.986 0-8.329 6.733-15.086 15.053-15.124h0.004zM686.769 451.604c8.353 0 15.124 6.771 15.124 15.124v0 60.455c0 0.005 0 0.012 0 0.018 0 6.546-4.158 12.12-9.977 14.225l-0.105 0.033-166.459 133.002c-2.56 2.061-5.851 3.308-9.433 3.308s-6.873-1.247-9.462-3.33l0.029 0.023-166.932-133.258c-5.504-2.337-9.295-7.697-9.295-13.942v0-60.455c0-8.353 6.771-15.124 15.124-15.124v0h19.535v-142.356c-20.050-4.986-34.68-22.815-34.718-44.067v-30.232c0-8.353 6.771-15.124 15.124-15.124v0h341.543c8.353 0 15.124 6.771 15.124 15.124v0 30.228c-0.075 21.224-14.693 39.013-34.405 43.927l-0.313 0.066v142.356zM515.84 643.23l126.444-100.943h-252.869zM671.744 265.137v-15.124h-311.316v15.124c0.022 8.344 6.78 15.101 15.122 15.124h281.070c8.337-0.022 15.090-6.769 15.124-15.101v-0.003zM395.166 310.43v141.174h30.228v-141.076zM455.621 310.43v141.174h120.93v-141.076zM606.779 310.43v141.174h30.228v-141.076zM360.428 481.753v30.306h311.316v-30.228zM515.308 900.155h0.197c0.163-0.006 0.354-0.010 0.546-0.010 8.353 0 15.124 6.771 15.124 15.124s-6.771 15.124-15.124 15.124c-0.192 0-0.383-0.004-0.573-0.011l0.027 0.001h-0.197c-8.114-0.302-14.578-6.953-14.578-15.114s6.464-14.812 14.551-15.113l0.027-0.001zM516.352-2.796h-0.256c-8.114-0.302-14.578-6.953-14.578-15.114s6.464-14.812 14.551-15.113l0.027-0.001h0.197c0.163-0.006 0.354-0.010 0.546-0.010 8.353 0 15.124 6.771 15.124 15.124s-6.771 15.124-15.124 15.124c-0.192 0-0.383-0.004-0.573-0.011l0.027 0.001zM632.084 885.169l0.512-0.138c1.11-0.284 2.386-0.449 3.7-0.453h0.003c0.004 0 0.008 0 0.012 0 8.342 0 15.104 6.762 15.104 15.104 0 7.010-4.775 12.904-11.25 14.608l-0.105 0.024c-1.395 0.469-3.001 0.739-4.671 0.739-8.353 0-15.124-6.771-15.124-15.124 0-7.217 5.055-13.253 11.817-14.761l0.101-0.019zM742.065 57.718l-0.532-0.315c-4.25-2.671-7.034-7.334-7.034-12.647 0-8.222 6.665-14.887 14.887-14.887s14.887 6.665 14.887 14.887c0 8.222-6.665 14.887-14.887 14.887-2.691 0-5.216-0.714-7.395-1.963l0.073 0.038zM750.828 42.24l-1.319 2.324 1.438-2.54zM809.61 698.092c11.705-38.304 29.986-71.488 53.751-99.934l-0.365 0.449c15.346-21.136 30.308-39.566 46.171-57.169l-0.543 0.613 0.492-0.532c2.737-2.738 6.519-4.432 10.696-4.432 4.048 0 7.725 1.591 10.44 4.181l-0.006-0.006c0.354 0.354 0.729 0.729 1.044 1.103l0.374 0.414 0.197 0.217c14.415 16.128 28.908 34.048 43.087 53.287 1.694 2.343 3.426 4.647 5.14 6.971 21.106 24.675 37.52 54.062 47.434 86.296l0.457 1.728c2.108 8.376 3.521 18.112 3.929 28.108l0.009 0.289c0.124 2.054 0.195 4.455 0.195 6.873 0 26.863-8.739 51.685-23.529 71.778l0.235-0.335c-20.152 27.809-52.528 45.688-89.080 45.688-30.869 0-58.76-12.752-78.692-33.275l-0.026-0.027c-21.559-21.497-34.898-51.229-34.898-84.076 0-10 1.236-19.711 3.565-28.989l-0.174 0.819zM862.444 788.894c14.659 14.874 34.904 24.208 57.331 24.595l0.072 0.001c26.556-0.379 49.999-13.376 64.649-33.252l0.158-0.225c10.805-14.806 17.287-33.364 17.287-53.437 0-1.984-0.063-3.954-0.188-5.906l0.014 0.267c-0.351-8.177-1.48-15.906-3.319-23.355l0.169 0.807c-9.444-29.748-24.075-55.45-43.004-77.331l0.232 0.275c-1.733-2.343-3.486-4.687-5.199-7.030-10.181-13.785-20.5-26.9-30.838-39.089-10.535 12.347-21.228 25.974-32.374 41.354-20.934 24.994-37.45 54.509-47.85 86.77l-0.514 1.845c-1.642 6.379-2.584 13.701-2.584 21.244 0 24.473 9.92 46.628 25.959 62.665v0zM976.522 372.559c0.666-0.097 1.438-0.155 2.222-0.158h0.003c0.026 0 0.057 0 0.089 0 7.599 0 13.887 5.611 14.947 12.916l0.010 0.081v0.65c0.051 0.466 0.080 1.007 0.080 1.554 0 8.353-6.771 15.124-15.124 15.124s-15.124-6.771-15.124-15.124c0-7.581 5.578-13.859 12.853-14.954l0.083-0.010zM919.847 360.094c-30.819-0.375-58.61-13.033-78.764-33.295l-0.005-0.005c-21.559-21.497-34.898-51.229-34.898-84.076 0-10 1.236-19.711 3.565-28.989l-0.174 0.819c11.735-38.254 30.026-71.39 53.788-99.793l-0.363 0.445c15.335-21.134 30.297-39.564 46.165-57.163l-0.538 0.606 0.492-0.532c2.737-2.738 6.519-4.432 10.696-4.432 4.048 0 7.725 1.591 10.44 4.181l-0.006-0.006c0.354 0.354 0.729 0.729 1.044 1.103l0.591 0.65c14.415 16.128 28.908 34.028 43.087 53.287 1.694 2.324 3.426 4.647 5.14 6.971 21.11 24.673 37.526 54.061 47.435 86.298l0.457 1.727c2.108 8.376 3.521 18.112 3.929 28.108l0.009 0.289c0.122 2.034 0.191 4.413 0.191 6.808 0 26.884-8.737 51.727-23.526 71.845l0.236-0.337c-20.401 27.521-52.629 45.274-89.022 45.686l-0.066 0.001zM1001.846 237.43v0c-0.378-8.19-1.534-15.914-3.401-23.357l0.172 0.809c-9.44-29.749-24.071-55.452-43.004-77.33l0.232 0.274c-1.733-2.363-3.486-4.687-5.199-7.050-10.181-13.785-20.5-26.88-30.838-39.089-10.535 12.367-21.228 25.994-32.374 41.354-20.929 24.961-37.45 54.435-47.868 86.653l-0.516 1.845c-1.642 6.379-2.584 13.701-2.584 21.244 0 24.473 9.92 46.628 25.959 62.665v0c14.68 14.828 34.919 24.129 57.33 24.516l0.073 0.001c26.554-0.389 49.993-13.383 64.649-33.253l0.158-0.224c10.839-14.902 17.34-33.568 17.34-53.752 0-1.839-0.054-3.664-0.16-5.476l0.012 0.25zM919.828 678.754c28.516 0 51.633 23.117 51.633 51.633s-23.117 51.633-51.633 51.633c-28.516 0-51.633-23.117-51.633-51.633v0c0-28.516 23.117-51.633 51.633-51.633v0zM919.828 751.793c11.822 0 21.406-9.584 21.406-21.406s-9.584-21.406-21.406-21.406c-11.822 0-21.406 9.584-21.406 21.406v0c0 11.822 9.584 21.406 21.406 21.406v0zM919.828 298.476c-0.006 0-0.013 0-0.020 0-28.516 0-51.633-23.117-51.633-51.633s23.117-51.633 51.633-51.633c28.516 0 51.633 23.117 51.633 51.633v0c-0.011 28.501-23.113 51.602-51.612 51.614h-0.001zM919.828 225.457c-0.006 0-0.013 0-0.020 0-11.822 0-21.406 9.584-21.406 21.406s9.584 21.406 21.406 21.406c11.822 0 21.406-9.584 21.406-21.406 0-0.007 0-0.014 0-0.021v0.001c-0.022-11.798-9.586-21.355-21.385-21.366h-0.001zM688.226 866.245c1.743-0.757 3.774-1.198 5.908-1.198 8.378 0 15.169 6.792 15.169 15.169 0 6.244-3.773 11.607-9.163 13.934l-0.098 0.038-0.354 0.158c-1.641 0.665-3.544 1.050-5.538 1.050-8.353 0-15.124-6.771-15.124-15.124 0-6.243 3.782-11.602 9.181-13.911l0.099-0.038zM515.84 595.003c-8.353 0-15.124-6.771-15.124-15.124s6.771-15.124 15.124-15.124c8.353 0 15.124 6.771 15.124 15.124v0c0 8.353-6.771 15.124-15.124 15.124v0zM978.609 495.38c0.635 0.003 1.258 0.039 1.871 0.105l-0.079-0.007c7.549 0.923 13.338 7.295 13.338 15.018 0 0.627-0.038 1.245-0.112 1.853l0.007-0.073v0.709c-1.191 7.265-7.424 12.741-14.935 12.741-8.353 0-15.124-6.771-15.124-15.124 0-8.348 6.764-15.117 15.111-15.124h0.001zM997.79 448.768v1.044c0.006 0.163 0.010 0.354 0.010 0.546 0 8.353-6.771 15.124-15.124 15.124s-15.124-6.771-15.124-15.124c0-0.192 0.004-0.383 0.011-0.573l-0.001 0.027v-1.241c0.302-8.114 6.953-14.578 15.114-14.578s14.812 6.464 15.113 14.551l0.001 0.027zM574.129 896.512h0.414c0.533-0.075 1.149-0.118 1.775-0.118 0.006 0 0.012 0 0.018 0h-0.001c0.352-0.029 0.762-0.046 1.176-0.046 8.363 0 15.143 6.78 15.143 15.143 0 8.14-6.422 14.78-14.476 15.129l-0.032 0.001c-0.435 0.044-0.94 0.070-1.452 0.070-8.353 0-15.124-6.771-15.124-15.124 0-7.474 5.422-13.682 12.547-14.905l0.090-0.013zM241.644 90.329l-0.354 0.276c-2.409 1.693-5.402 2.705-8.632 2.705-8.353 0-15.124-6.771-15.124-15.124 0-4.739 2.18-8.969 5.591-11.742l0.028-0.022 9.314 11.815-9.295-11.934c2.487-1.867 5.626-2.989 9.027-2.989 8.353 0 15.124 6.771 15.124 15.124 0 4.722-2.164 8.938-5.554 11.711l-0.027 0.021zM282.289 837.474c0.001 0 0.001 0 0.002 0 2.737 0 5.303 0.731 7.514 2.008l-0.073-0.039 0.551 0.315c4.318 2.718 7.145 7.458 7.145 12.859 0 8.363-6.78 15.143-15.143 15.143s-15.143-6.78-15.143-15.143c0-8.344 6.748-15.111 15.084-15.143h0.003zM113.585 298.457c-28.516 0-51.633-23.117-51.633-51.633s23.117-51.633 51.633-51.633c28.516 0 51.633 23.117 51.633 51.633v0c0 28.516-23.117 51.633-51.633 51.633v0zM113.585 225.438c-11.822 0-21.406 9.584-21.406 21.406s9.584 21.406 21.406 21.406c11.822 0 21.406-9.584 21.406-21.406 0-0.007 0-0.014 0-0.021v0.001c-0.034-11.797-9.604-21.346-21.405-21.346 0 0 0 0 0 0v0zM290.56 57.58c-2.212 1.336-4.883 2.127-7.739 2.127-8.364 0-15.143-6.78-15.143-15.143 0-5.507 2.94-10.328 7.336-12.979l0.068-0.038 0.532-0.315c1.915-0.941 4.168-1.492 6.55-1.492 8.353 0 15.124 6.771 15.124 15.124 0 5.223-2.647 9.827-6.673 12.545l-0.054 0.034zM225.753 236.308v0c0.121 2.033 0.191 4.41 0.191 6.803 0 26.882-8.729 51.726-23.507 71.851l0.237-0.339c-20.408 27.48-52.617 45.201-88.984 45.607l-0.065 0.001c-30.76-0.424-58.487-13.072-78.607-33.295l-0.005-0.005c-21.56-21.494-34.9-51.224-34.9-84.069 0-10.002 1.237-19.716 3.567-28.995l-0.174 0.819c11.659-38.3 29.903-71.487 53.635-99.938l-0.367 0.452c15.321-21.113 30.284-39.531 46.156-57.112l-0.529 0.595c0.164-0.191 0.331-0.365 0.508-0.528l0.004-0.004c2.734-2.737 6.512-4.43 10.686-4.43 4.045 0 7.719 1.59 10.43 4.179l-0.006-0.006c0.366 0.346 0.707 0.706 1.028 1.083l0.016 0.019 0.591 0.65c14.415 16.128 28.908 34.028 43.087 53.287l5.14 6.971c21.106 24.678 37.526 54.063 47.453 86.295l0.459 1.73c2.092 8.372 3.497 18.109 3.909 28.102l0.010 0.294zM195.525 237.489v0c-0.335-8.168-1.45-15.9-3.278-23.352l0.167 0.804c-9.447-29.749-24.084-55.452-43.022-77.329l0.231 0.273-5.199-7.050c-10.082-13.785-20.48-26.88-30.838-39.089-10.535 12.367-21.209 25.994-32.374 41.354-20.934 24.942-37.461 54.396-47.888 86.595l-0.516 1.843c-1.644 6.383-2.588 13.711-2.588 21.26 0 24.494 9.938 46.667 26.001 62.707l0.001 0.001c14.68 14.828 34.919 24.129 57.33 24.516l0.073 0.001c26.506-0.423 49.895-13.401 64.531-33.233l0.158-0.224c10.804-14.816 17.285-33.384 17.285-53.466 0-1.974-0.063-3.933-0.186-5.876l0.013 0.265zM394.654 884.263c0.047-0.001 0.104-0.001 0.16-0.001 8.363 0 15.143 6.78 15.143 15.143s-6.78 15.143-15.143 15.143c-1.387 0-2.731-0.187-4.008-0.536l0.106 0.025h-0.315c-6.441-1.83-11.079-7.66-11.079-14.573 0-8.315 6.71-15.063 15.011-15.123h0.006zM457.433 0.985h-0.177c-0.748 0.131-1.609 0.206-2.487 0.206-8.353 0-15.124-6.771-15.124-15.124 0-7.841 5.968-14.289 13.609-15.049l0.063-0.005h0.197c0.591-0.075 1.275-0.118 1.969-0.118v0c8.267 0.112 14.925 6.84 14.925 15.122 0 7.588-5.588 13.87-12.873 14.957l-0.083 0.010zM399.577 12.386l-0.512 0.118c-1.294 0.401-2.782 0.631-4.324 0.631-8.353 0-15.124-6.771-15.124-15.124 0-7.234 5.078-13.281 11.864-14.772l0.1-0.018c1.395-0.469 3.001-0.739 4.671-0.739 8.353 0 15.124 6.771 15.124 15.124 0 7.217-5.055 13.253-11.817 14.761l-0.101 0.019zM336.837 864.551c2.051 0.001 4.007 0.406 5.793 1.14l-0.102-0.037 0.551 0.217c5.409 2.409 9.111 7.736 9.111 13.929 0 2.169-0.454 4.231-1.272 6.098l0.038-0.098c-2.341 5.411-7.633 9.129-13.794 9.129-2.169 0-4.231-0.461-6.092-1.29l0.095 0.038 5.671-14.1-5.691 14.1c-5.565-2.316-9.406-7.71-9.406-14.001 0-8.343 6.756-15.109 15.096-15.124h0.001zM343.473 31.567c-1.743 0.759-3.774 1.201-5.908 1.201-8.358 0-15.133-6.775-15.133-15.133 0-6.224 3.757-11.57 9.127-13.895l0.098-0.038 0.354-0.158c1.641-0.665 3.544-1.050 5.538-1.050 8.353 0 15.124 6.771 15.124 15.124 0 6.243-3.782 11.602-9.181 13.911l-0.099 0.038zM575.252 1.339h-0.197c-7.368-1.097-12.955-7.38-12.955-14.967 0-8.283 6.658-15.010 14.914-15.122h0.011c0.694 0 1.378 0.043 2.050 0.126l-0.081-0.008h0.197c7.215 1.236 12.637 7.444 12.637 14.918 0 8.353-6.771 15.124-15.124 15.124-0.511 0-1.016-0.025-1.514-0.075l0.063 0.005zM113.585 678.754c28.516 0 51.633 23.117 51.633 51.633s-23.117 51.633-51.633 51.633c-28.516 0-51.633-23.117-51.633-51.633v0c0-28.516 23.117-51.633 51.633-51.633v0zM113.585 751.793c11.822 0 21.406-9.584 21.406-21.406s-9.584-21.406-21.406-21.406c-11.822 0-21.406 9.584-21.406 21.406v0c0 11.822 9.584 21.406 21.406 21.406v0zM56.773 598.784c15.322-21.131 30.285-39.562 46.159-57.155l-0.532 0.599c0.164-0.191 0.331-0.365 0.508-0.528l0.004-0.004c2.734-2.737 6.512-4.43 10.686-4.43 4.045 0 7.719 1.59 10.43 4.179l-0.006-0.006c0.403 0.347 0.769 0.701 1.114 1.074l0.008 0.009 0.374 0.414 0.197 0.217c14.415 16.128 28.908 34.048 43.087 53.287l5.14 6.971c21.106 24.678 37.526 54.063 47.453 86.295l0.459 1.73c2.098 8.37 3.51 18.105 3.929 28.098l0.010 0.298c0.124 2.052 0.195 4.452 0.195 6.868 0 26.862-8.731 51.684-23.51 71.784l0.236-0.336c-20.446 27.484-52.67 45.216-89.056 45.666l-0.072 0.001c-30.763-0.408-58.494-13.060-78.606-33.294l-0.006-0.006c-21.56-21.494-34.9-51.224-34.9-84.069 0-10.002 1.237-19.716 3.567-28.995l-0.174 0.819c11.669-38.309 29.926-71.503 53.673-99.956l-0.366 0.451zM56.222 789.051c14.669 14.845 34.915 24.152 57.335 24.516l0.069 0.001c26.508-0.414 49.901-13.395 64.531-33.233l0.158-0.224c10.806-14.793 17.29-33.34 17.29-53.402 0-1.997-0.064-3.978-0.191-5.943l0.014 0.268c-0.343-8.173-1.466-15.903-3.299-23.354l0.168 0.806c-9.452-29.748-24.089-55.45-43.023-77.33l0.232 0.274-5.199-7.030c-10.082-13.785-20.5-26.9-30.838-39.089-10.516 12.347-21.209 25.974-32.374 41.354-20.934 24.994-37.45 54.509-47.85 86.77l-0.514 1.845c-1.61 6.318-2.534 13.57-2.534 21.039 0 24.506 9.948 46.689 26.025 62.731l0.002 0.002zM741.297 840.251c2.129-1.239 4.685-1.97 7.412-1.97 0.066 0 0.133 0 0.199 0.001h-0.010c0.022 0 0.049 0 0.075 0 8.353 0 15.124 6.771 15.124 15.124 0 5.567-3.008 10.432-7.487 13.057l-0.071 0.039-0.335 0.197c-2.388 1.651-5.346 2.637-8.533 2.637-8.353 0-15.124-6.771-15.124-15.124 0-6.047 3.549-11.265 8.677-13.685l0.092-0.039zM633.206 12.603c-6.59-1.729-11.372-7.631-11.372-14.651 0-8.349 6.766-15.118 15.113-15.124h0.001c1.347 0.007 2.648 0.186 3.888 0.517l-0.107-0.024 0.394 0.098c6.756 1.608 11.703 7.592 11.703 14.732 0 8.353-6.771 15.124-15.124 15.124-1.591 0-3.124-0.246-4.564-0.701l0.107 0.029zM231.483 803.486c0.050-0.001 0.11-0.001 0.169-0.001 8.385 0 15.183 6.798 15.183 15.183s-6.798 15.183-15.183 15.183c-3.409 0-6.556-1.124-9.090-3.021l0.040 0.028-0.374-0.276c-3.572-2.797-5.846-7.11-5.846-11.953 0-8.356 6.767-15.131 15.12-15.143h0.001zM689.093 31.547l-0.532-0.217c-5.408-2.397-9.112-7.718-9.112-13.903 0-8.324 6.707-15.081 15.012-15.162h0.008c0.025 0 0.054 0 0.083 0 2.158 0 4.208 0.464 6.055 1.298l-0.093-0.037-5.671 14.1 5.691-14.1c5.661 2.272 9.586 7.714 9.586 14.073 0 8.353-6.771 15.124-15.124 15.124-2.11 0-4.119-0.432-5.943-1.212l0.099 0.038zM34.383 448.236c-0.006-0.163-0.010-0.354-0.010-0.546 0-8.353 6.771-15.124 15.124-15.124s15.124 6.771 15.124 15.124c0 0.192-0.004 0.383-0.011 0.573l0.001-0.027v0.197c-0.302 8.114-6.953 14.578-15.114 14.578s-14.812-6.464-15.113-14.551l-0.001-0.027zM53.484 372.165c0.628 0.003 1.244 0.039 1.85 0.105l-0.078-0.007c7.559 0.925 13.356 7.304 13.356 15.037 0 0.62-0.037 1.232-0.11 1.832l0.007-0.072v0.63c-1.191 7.265-7.424 12.741-14.935 12.741-8.353 0-15.124-6.771-15.124-15.124 0-8.314 6.708-15.061 15.008-15.123h0.006zM51.22 386.954l2.304 0.256-2.501-0.276zM51.594 494.001c0.268-0.014 0.581-0.022 0.896-0.022s0.628 0.008 0.94 0.024l-0.044-0.002c0.022 0 0.049 0 0.075 0 8.396 0 15.202 6.806 15.202 15.202s-6.806 15.202-15.202 15.202c-7.618 0-13.927-5.603-15.031-12.913l-0.010-0.084v-0.591c-0.066-0.53-0.104-1.144-0.104-1.767 0-7.702 5.757-14.059 13.203-15.003l0.075-0.008z" />
<glyph unicode="&#xe927;" glyph-name="wrong" d="M1002.403 938.403c-13.246 13.349-31.6 21.612-51.885 21.612s-38.639-8.263-51.88-21.608l-0.005-0.005-386.634-387.424-386.634 387.424c-13.278 13.278-31.623 21.491-51.885 21.491-40.525 0-73.376-32.852-73.376-73.376 0-20.262 8.213-38.606 21.491-51.885v0l387.424-386.634-387.424-386.634c-13.278-13.278-21.491-31.623-21.491-51.885 0-40.525 32.852-73.376 73.376-73.376 20.262 0 38.606 8.213 51.885 21.491v0l386.634 387.292 386.634-387.292c13.278-13.278 31.623-21.491 51.885-21.491 40.525 0 73.376 32.852 73.376 73.376 0 20.262-8.213 38.606-21.491 51.885v0l-387.292 386.634 387.292 386.634c13.349 13.246 21.612 31.6 21.612 51.885s-8.263 38.639-21.608 51.88l-0.005 0.005z" />
<glyph unicode="&#xe928;" glyph-name="dateandtime" d="M31.995 960c-17.67 0-31.995-14.325-31.995-31.995v0-767.958c0-17.67 14.325-31.995 31.995-31.995v0h365.977c-6.601 18.592-11.549 40.277-13.926 62.73l-0.108 1.26h-319.948v575.822h703.969v-192.136c23.696-2.452 45.384-7.402 65.992-14.647l-2.002 0.613v366.311c0 17.67-14.325 31.995-31.995 31.995v0zM63.99 896.010h703.969v-63.99h-703.969zM127.979 703.875v-63.99h64.157v63.99zM255.958 703.875v-63.99h63.99v63.99zM383.937 703.875v-63.99h63.99v63.99zM511.916 703.875v-63.99h63.99v63.99zM639.896 703.875v-63.99h63.99v63.99zM127.979 575.729v-63.99h64.157v63.99zM255.958 575.729v-63.99h63.99v63.99zM383.937 575.729v-63.99h63.99v63.99zM511.916 575.729v-63.99h34c8.553 6.469 18.34 13.061 28.478 19.127l1.512 0.838v44.024zM735.88 511.739c-159.032 0-287.953-128.921-287.953-287.953s128.921-287.953 287.953-287.953c159.032 0 287.953 128.921 287.953 287.953v0c-0.095 159.015-128.881 287.918-287.842 288.204h-0.027zM735.88 459.779c130.335 0 235.993-105.658 235.993-235.993s-105.658-235.993-235.993-235.993c-130.335 0-235.993 105.658-235.993 235.993v0c0 0.124 0 0.271 0 0.418 0 130.243 105.583 235.826 235.826 235.826 0.088 0 0.177 0 0.265 0h-0.014zM127.896 447.749v-63.99h64.24v63.99zM255.875 447.749v-63.99h63.99v63.99zM383.854 447.749v-63.99h44.024c6.908 11.652 13.5 21.44 20.578 30.84l-0.613-0.85v34zM729.865 383.76c-14.9-2.925-25.985-15.881-25.985-31.425 0-0.2 0.002-0.4 0.006-0.599v0.030-127.729c0-17.67 14.325-31.995 31.995-31.995v0h114.028c17.67 0 31.995 14.325 31.995 31.995s-14.325 31.995-31.995 31.995h-82.034v95.984c-1.574 18.062-16.625 32.127-34.961 32.127-1.073 0-2.135-0.048-3.184-0.143l0.135 0.010zM127.896 319.77v-63.99h64.24v63.99zM255.875 319.77v-63.99h63.99v63.99z" />
<glyph unicode="&#xe929;" glyph-name="rightArrow" d="M300.815 945.423c-9.653 9.631-22.977 15.586-37.692 15.586-29.475 0-53.368-23.894-53.368-53.368 0-15.794 6.861-29.985 17.764-39.757l0.050-0.044 439.115-414.72-439.115-414.72c-10.954-9.816-17.815-24.007-17.815-39.801 0-29.475 23.894-53.368 53.368-53.368 14.715 0 28.039 5.955 37.693 15.587l-0.001-0.001 480.196 453.512c10.303 9.751 16.716 23.522 16.716 38.792s-6.412 29.041-16.691 38.768l-0.025 0.023-480.196 453.512z" />
<glyph unicode="&#xe92a;" glyph-name="calendar-" d="M809.891 870.447v59.671c0 0.001 0 0.002 0 0.004 0 16.503-13.379 29.882-29.882 29.882-0.164 0-0.327-0.001-0.49-0.004h-29.671c-16.503 0-29.882-13.379-29.882-29.882v0-59.671zM272.198 870.447v59.671c0 0 0 0.001 0 0.001 0 16.503-13.379 29.882-29.882 29.882-0.098 0-0.196 0-0.294-0.001h-29.495c-16.503 0-29.882-13.379-29.882-29.882v-59.671zM93.091 780.893h805.888v-89.553h-805.888zM93.091 601.786h805.888v-626.781h-805.888zM182.644 512.233v-89.553h89.553v89.553zM361.751 512.233v-89.553h89.553v89.553zM540.858 512.233v-89.553h89.553v89.553zM719.965 512.233v-89.553h89.926v89.553zM182.644 333.219v-90.019h89.553v90.019zM361.751 333.219v-90.019h89.553v90.019zM540.858 333.219v-90.019h89.553v90.019zM719.965 333.219v-90.019h89.926v90.019zM182.644 154.112v-89.553h89.553v89.553zM361.751 154.112v-89.553h89.553v89.553zM540.858 154.112v-89.553h89.553v89.553z" />
<glyph unicode="&#xe92b;" glyph-name="quote-" d="M659.596 344.017h72.751c-34.025-98.537-63.069-145.734-159.791-186.182-13.382-5.654-22.603-18.669-22.603-33.839 0-20.208 16.363-36.594 36.563-36.631h0.004c201.728 0.372 317.58 81.222 399.732 278.9 24.987 57.79 39.52 125.082 39.52 195.768 0 0.59-0.001 1.179-0.003 1.768v-0.091c0.002 0.458 0.003 0.999 0.003 1.541 0 90.084-30.43 173.061-81.571 239.212l0.672-0.904c-6.59 10.124-17.829 16.74-30.617 16.803h-254.659c-60.697-0.053-109.887-49.243-109.94-109.935v-256.517c0.079-60.677 49.26-109.841 109.935-109.894h0.005zM109.94 344.017h72.751c-34.025-98.537-63.069-145.734-159.791-186.182-13.382-5.654-22.603-18.669-22.603-33.839 0-20.208 16.363-36.594 36.563-36.631h0.004c201.914 0.512 317.812 81.361 399.965 279.040 24.987 57.79 39.52 125.082 39.52 195.768 0 0.59-0.001 1.179-0.003 1.768v-0.091c0.002 0.488 0.003 1.066 0.003 1.643 0 89.977-30.357 172.863-81.388 238.975l0.675-0.909c-6.621 10.172-17.937 16.804-30.801 16.804-0.086 0-0.172 0-0.258-0.001h-254.637c-60.697-0.053-109.887-49.243-109.94-109.935v-256.517c0.079-60.677 49.26-109.841 109.935-109.894h0.005z" />
<glyph unicode="&#xe92c;" glyph-name="time" d="M657.774 393.362l-120.174 69.266v241.371c0 14.138-11.462 25.6-25.6 25.6s-25.6-11.462-25.6-25.6v0-256c0.086-9.338 5.158-17.472 12.679-21.877l0.121-0.065 132.974-76.8c3.547-1.977 7.78-3.141 12.285-3.141 14.138 0 25.6 11.462 25.6 25.6 0 9.215-4.869 17.293-12.175 21.802l-0.11 0.063zM512 960c-282.77 0-512-229.23-512-512s229.23-512 512-512c282.77 0 512 229.23 512 512v0c0 282.77-229.23 512-512 512v0zM512-12.8c-254.493 0-460.8 206.307-460.8 460.8s206.307 460.8 460.8 460.8c254.493 0 460.8-206.307 460.8-460.8v0c0-254.493-206.307-460.8-460.8-460.8v0z" />
<glyph unicode="&#xe92d;" glyph-name="money" d="M919.36 764.8h-727.936c-35.276-0.050-64.644-25.282-71.095-58.68l-0.073-0.456c-29.42-5.676-52.244-28.5-57.846-57.464l-0.074-0.456c-33.854-6.524-59.086-35.892-59.136-71.162v-351.43c0.073-39.947 32.437-72.311 72.377-72.384h727.943c35.276 0.050 64.644 25.282 71.095 58.68l0.073 0.456c29.42 5.676 52.244 28.5 57.846 57.464l0.074 0.456c33.854 6.524 59.086 35.892 59.136 71.162v351.43c-0.073 39.947-32.437 72.311-72.377 72.384h-0.007zM32.192 576.576c0 24 19.456 43.456 43.456 43.456v0h42.752c-6.635-44.545-41.407-79.317-85.395-85.884l-0.557-0.068zM75.648 181.696c-24 0-43.456 19.456-43.456 43.456v0 42.496c44.491-6.687 79.203-41.443 85.756-85.395l0.068-0.557zM847.040 225.152c0-24-19.456-43.456-43.456-43.456h-42.496c6.635 44.545 41.407 79.317 85.395 85.884l0.557 0.068zM847.040 296.768c-60.592-7.015-108.185-54.608-115.143-114.592l-0.057-0.608h-584.64c-7.015 60.592-54.608 108.185-114.592 115.143l-0.608 0.057v208.192c60.592 7.015 108.185 54.608 115.143 114.592l0.057 0.608h584.704c7.015-60.592 54.608-108.185 114.592-115.143l0.608-0.057zM847.040 534.272c-44.455 6.673-79.151 41.369-85.755 85.264l-0.069 0.56h42.496c23.973-0.036 43.392-19.478 43.392-43.456 0-0.023 0-0.045 0-0.068v0.003zM904.96 283.264c-0.028-18.802-11.975-34.806-28.689-40.864l-0.303-0.096v334.272c-0.073 39.947-32.437 72.311-72.377 72.384h-710.791c6.154 17.017 22.158 28.964 40.956 28.992h727.684c24 0 43.456-19.456 43.456-43.456v0zM962.88 341.184c-0.028-18.802-11.975-34.806-28.689-40.864l-0.303-0.096v334.272c-0.073 39.947-32.437 72.311-72.377 72.384h-711.111c6.154 17.017 22.158 28.964 40.956 28.992h728.004c24 0 43.456-19.456 43.456-43.456v0zM787.2 386.56c7.736 0.144 13.951 6.449 13.951 14.206 0 7.847-6.361 14.208-14.208 14.208s-14.208-6.361-14.208-14.208c0-3.923 1.59-7.475 4.161-10.046v0c2.61-2.572 6.195-4.161 10.151-4.161 0.054 0 0.107 0 0.161 0.001h-0.008zM92.096 415.552c-7.988 0-14.464-6.476-14.464-14.464s6.476-14.464 14.464-14.464c7.988 0 14.464 6.476 14.464 14.464v0c0 7.988-6.476 14.464-14.464 14.464v0zM439.616 593.984c-0.013 0-0.028 0-0.044 0-106.64 0-193.088-86.448-193.088-193.088s86.448-193.088 193.088-193.088c106.64 0 193.088 86.448 193.088 193.088 0 53.309-21.603 101.572-56.533 136.512v0c-34.938 34.917-83.193 56.512-136.492 56.512-0.030 0-0.059 0-0.089 0h0.005zM555.584 284.8c-29.695-29.695-70.719-48.061-116.032-48.061-90.628 0-164.096 73.468-164.096 164.096s73.468 164.096 164.096 164.096c90.628 0 164.096-73.468 164.096-164.096 0-0.001 0-0.002 0-0.003v0c-0.001-45.314-18.368-86.337-48.064-116.032v0zM515.584 488.256c0 7.988-6.476 14.464-14.464 14.464v0h-123.072c-8.006 0-14.496-6.49-14.496-14.496s6.49-14.496 14.496-14.496v0h43.008c15.523-0.032 28.832-9.473 34.531-22.922l0.093-0.246h-77.632c-8.006 0-14.496-6.49-14.496-14.496s6.49-14.496 14.496-14.496v0h77.632c-5.81-13.669-19.115-23.084-34.621-23.104h-45.507c-0.106 0.027-0.227 0.043-0.352 0.043s-0.246-0.016-0.362-0.045l0.010 0.002h-1.792l-0.896-0.32-0.64-0.32h-0.576l-0.64-0.384-0.576-0.32-0.512-0.384-0.64-0.512-0.384-0.384-0.64-0.576v-0.32l-0.576-0.64-0.384-0.512-0.448-0.64-0.384-0.576-0.64-1.28s0-0.448 0-0.64v-2.816c-0.014-0.115-0.023-0.249-0.023-0.384s0.008-0.269 0.024-0.4l-0.002 0.016c0.023-0.096 0.037-0.206 0.037-0.32s-0.013-0.224-0.039-0.33l0.002 0.010c-0.025-0.135-0.039-0.29-0.039-0.448s0.014-0.313 0.041-0.464l-0.002 0.016v-1.984c-0.029-0.125-0.046-0.269-0.046-0.416s0.017-0.291 0.048-0.429l-0.002 0.013s0-0.384 0-0.576c-0.010-0.106-0.016-0.228-0.016-0.352s0.006-0.246 0.017-0.367l-0.001 0.015c-0.005-0.096-0.008-0.207-0.008-0.32s0.003-0.224 0.009-0.336l-0.001 0.016v-1.344l0.448-0.896v-0.32l0.448-0.768v-0.448l0.896-1.152 0.384-0.448 0.576-0.64 93.056-90.048c2.604-2.526 6.16-4.083 10.080-4.083 7.999 0 14.483 6.484 14.483 14.483 0 4.079-1.686 7.764-4.4 10.396l-0.004 0.004-67.328 65.152h7.232c31.543 0.040 57.948 21.994 64.808 51.454l0.088 0.45h15.168c8.006 0 14.496 6.49 14.496 14.496s-6.49 14.496-14.496 14.496v0h-15.168c-1.985 8.803-5.464 16.561-10.192 23.388l0.144-0.22h25.088c0.038 0 0.083-0.001 0.128-0.001 7.966 0 14.428 6.44 14.464 14.397v0.003z" />
<glyph unicode="&#xe92e;" glyph-name="location" d="M497.006-29.696s-387.291 202.606-387.291 602.405c0 213.895 173.396 387.291 387.291 387.291s387.291-173.396 387.291-387.291v0c0-399.799-387.291-602.405-387.291-602.405zM497.006 916.992c-190.059-0.208-344.076-154.225-344.283-344.264v-0.020c0-317.513 268.142-505.637 344.283-552.667 76.288 46.811 344.137 234.13 344.137 552.667-0.208 190.007-154.141 343.992-344.109 344.283h-0.028zM497.006 379.099c-106.927 0-193.609 86.682-193.609 193.609s86.682 193.609 193.609 193.609c106.927 0 193.609-86.682 193.609-193.609v0c0-106.927-86.682-193.609-193.609-193.609v0zM497.006 723.383c-83.175 0-150.601-67.426-150.601-150.601s67.426-150.601 150.601-150.601c83.175 0 150.601 67.426 150.601 150.601v0c-0.042 83.143-67.452 150.528-150.601 150.528v0z" />
<glyph unicode="&#xe930;" glyph-name="edit" d="M1008.932 755.005l-190.035 190.035c-8.489 9.222-20.619 14.979-34.094 14.979s-25.605-5.757-34.064-14.947l-0.030-0.033-736.075-735.966c-8.876-8.703-14.438-20.757-14.634-34.111v-190.181c0-26.942 21.841-48.783 48.783-48.783v0h189.71c13.391 0.197 25.445 5.759 34.14 14.627l0.008 0.008 248.899 251.068 70.68 68.187 24.391 24.391 68.187 67.862 324.133 324.133c9.222 8.489 14.979 20.619 14.979 34.094s-5.757 25.605-14.947 34.064l-0.033 0.030zM216.811 33.565h-119.246v119.246l545.823 546.039 119.246-119.246zM830.929 647.683l-119.246 119.246 73.065 75.884 121.848-121.848z" />
<glyph unicode="&#xe931;" glyph-name="watching" d="M979.782 434.688c-55.403 88.16-131.28 158.757-221.204 206.354l-3.145 1.518c22.58-37.499 35.936-82.767 35.936-131.155 0-0.462-0.001-0.923-0.004-1.384v0.071c0.016-1.049 0.025-2.288 0.025-3.528 0-71.665-29.675-136.4-77.407-182.587l-0.070-0.067c-46.254-47.802-110.988-77.476-182.654-77.476-1.241 0-2.479 0.009-3.716 0.027l0.187-0.002c-1.049-0.016-2.288-0.025-3.528-0.025-71.665 0-136.4 29.675-182.587 77.407l-0.067 0.070c-47.802 46.254-77.476 110.988-77.476 182.654 0 1.241 0.009 2.479 0.027 3.716l-0.002-0.187c-0.002 0.39-0.003 0.851-0.003 1.313 0 48.388 13.357 93.656 36.585 132.319l-0.648-1.164c-93.069-49.115-168.946-119.712-222.939-205.473l-1.41-2.399c50.679-78.589 116.5-143.071 193.798-190.728l2.623-1.505c72.957-44.97 161.367-71.612 256-71.612s183.043 26.643 258.139 72.836l-2.139-1.224c79.626 49.234 145.195 113.703 194.228 189.829l1.449 2.403zM555.846 660.806c0 15.424-12.503 27.927-27.927 27.927v0c-98.654-0.525-178.488-80.359-179.014-178.963v-0.050c0-15.604 12.649-28.253 28.253-28.253s28.253 12.649 28.253 28.253v0c0.053 67.638 54.87 122.455 122.503 122.508h0.005c15.424 0 27.927 12.503 27.927 27.927v0zM1055.185 434.688c-0.325-15.047-4.68-29.012-12.025-40.94l0.202 0.353c-55.313-90.196-130.027-163.422-218.705-215.4l-2.945-1.595c-83.915-51.314-185.469-81.699-294.121-81.699s-210.205 30.385-296.629 83.121l2.508-1.422c-91.51 53.69-166.189 126.851-220.094 214.193l-1.556 2.708c-7.391 11.511-11.782 25.56-11.782 40.634s4.391 29.123 11.964 40.938l-0.182-0.303c55.481 89.977 130.156 163.074 218.698 215.112l2.952 1.604c83.889 51.409 185.45 81.855 294.121 81.855s210.231-30.446 296.616-83.273l-2.495 1.418c91.493-53.641 166.168-126.738 220.095-214.012l1.555-2.703c7.142-11.576 11.498-25.541 11.821-40.499l0.002-0.089z" />
<glyph unicode="&#xe932;" glyph-name="like" horiz-adv-x="1025" d="M406.997 744.37c0.833-0.805 1.351-1.932 1.351-3.18 0-0.267-0.024-0.529-0.069-0.783l0.004 0.027-12.453-72.787c-0.315-1.737-0.496-3.735-0.496-5.776 0-18.724 15.179-33.903 33.903-33.903 5.795 0 11.25 1.454 16.021 4.017l-0.181-0.089 65.316 34.385c0.594 0.317 1.3 0.504 2.049 0.504s1.454-0.186 2.073-0.515l-0.024 0.012 65.316-34.385c4.59-2.474 10.045-3.928 15.84-3.928 18.724 0 33.903 15.179 33.903 33.903 0 2.041-0.18 4.039-0.526 5.981l0.030-0.205-12.533 72.867c-0.034 0.207-0.054 0.445-0.054 0.687 0 1.242 0.513 2.365 1.338 3.168l0.001 0.001 52.863 51.497c6.37 6.171 10.323 14.804 10.323 24.36 0 17.038-12.568 31.14-28.939 33.542l-0.184 0.022-73.108 10.605c-1.454 0.228-2.655 1.137-3.282 2.385l-0.012 0.025-32.618 66.28c-5.644 11.339-17.152 18.993-30.448 18.993s-24.805-7.654-30.36-18.796l-0.089-0.197-32.698-66.199c-0.639-1.273-1.84-2.182-3.269-2.407l-0.025-0.003-73.028-10.605c-16.555-2.424-29.123-16.527-29.123-33.564 0-9.556 3.954-18.189 10.314-24.351l0.009-0.009zM373.656 821.576c0.48 1.596 1.847 2.775 3.515 2.971l0.020 0.002 73.028 10.685c11.274 1.677 20.608 8.7 25.459 18.363l0.089 0.195 32.698 66.039c0.715 1.534 2.244 2.578 4.017 2.578s3.302-1.044 4.006-2.551l0.011-0.027 32.698-66.199c4.94-9.858 14.274-16.881 25.362-18.536l0.186-0.023 73.028-10.605c2.108-0.361 3.693-2.175 3.693-4.359 0-1.214-0.49-2.314-1.283-3.113v0l-52.863-51.497c-6.307-6.162-10.219-14.754-10.219-24.258 0-2.045 0.181-4.048 0.528-5.993l-0.030 0.205 12.453-72.787c0.042-0.228 0.065-0.49 0.065-0.758 0-2.44-1.978-4.419-4.419-4.419-0.759 0-1.473 0.191-2.097 0.529l0.023-0.012-65.476 34.465c-4.576 2.457-10.013 3.9-15.787 3.9s-11.21-1.443-15.969-3.989l0.182 0.089-65.316-34.385c-0.601-0.326-1.315-0.517-2.074-0.517-2.44 0-4.419 1.978-4.419 4.419 0 0.268 0.024 0.53 0.069 0.785l-0.004-0.027 12.453 72.787c0.317 1.74 0.498 3.743 0.498 5.788 0 9.505-3.911 18.096-10.212 24.252l-52.87 51.504c-0.842 0.767-1.369 1.868-1.369 3.092 0 0.504 0.089 0.988 0.253 1.436l-0.009-0.029zM1006.727 551.798c5.903 5.83 9.559 13.923 9.559 22.87 0 16.218-12.013 29.629-27.627 31.822l-0.17 0.020-66.521 9.641c-0.88 0.14-1.609 0.683-2.001 1.431l-0.007 0.015-29.725 60.335c-5.342 10.771-16.262 18.045-28.882 18.045s-23.54-7.274-28.798-17.858l-0.084-0.187-29.725-60.335c-0.4-0.763-1.129-1.306-1.993-1.444l-0.016-0.002-66.521-9.641c-15.719-2.273-27.661-15.653-27.661-31.823 0-9.078 3.764-17.276 9.816-23.12l0.009-0.009 48.203-46.918c0.518-0.498 0.839-1.196 0.839-1.97 0-0.156-0.013-0.308-0.038-0.456l0.002 0.016-11.408-66.28c-0.316-1.692-0.496-3.638-0.496-5.626 0-17.748 14.388-32.136 32.136-32.136 5.534 0 10.741 1.399 15.288 3.862l-0.17-0.084 59.531 31.332c0.362 0.189 0.791 0.3 1.245 0.3s0.883-0.111 1.26-0.308l-0.015 0.007 59.531-31.332c4.377-2.379 9.584-3.778 15.118-3.778 17.748 0 32.136 14.388 32.136 32.136 0 1.988-0.181 3.934-0.526 5.823l0.030-0.197-11.408 66.28c-0.023 0.132-0.036 0.285-0.036 0.44 0 0.774 0.322 1.472 0.838 1.969l0.001 0.001zM937.877 526.17c-5.995-5.843-9.713-13.998-9.713-23.020 0-1.943 0.173-3.846 0.503-5.695l-0.029 0.195 11.408-66.28c0.016-0.112 0.026-0.242 0.026-0.373 0-1.509-1.223-2.732-2.732-2.732-0.449 0-0.872 0.108-1.246 0.3l0.015-0.007-59.531 31.332c-4.343 2.335-9.503 3.707-14.983 3.707s-10.64-1.372-15.155-3.791l0.172 0.084-59.531-31.332c-0.358-0.185-0.782-0.293-1.231-0.293-1.509 0-2.732 1.223-2.732 2.732 0 0.132 0.009 0.261 0.027 0.388l-0.002-0.015 11.408 66.28c0.294 1.634 0.463 3.514 0.463 5.433 0 9.056-3.746 17.238-9.774 23.079l-0.008 0.008-48.203 46.918c-0.467 0.489-0.755 1.154-0.755 1.885 0 1.35 0.979 2.47 2.265 2.692l0.016 0.002 66.521 9.641c10.641 1.626 19.441 8.276 24.018 17.409l0.084 0.185 29.725 60.335c0.469 0.867 1.372 1.446 2.41 1.446s1.941-0.579 2.403-1.432l0.007-0.014 29.725-60.335c4.66-9.318 13.461-15.968 23.923-17.572l0.179-0.023 66.521-9.641c1.303-0.224 2.281-1.345 2.281-2.694 0-0.732-0.288-1.396-0.756-1.886l0.001 0.001zM66.28 504.88c0.518-0.498 0.839-1.196 0.839-1.97 0-0.156-0.013-0.308-0.038-0.456l0.002 0.016-11.408-66.28c-0.316-1.692-0.496-3.638-0.496-5.626 0-17.748 14.388-32.136 32.136-32.136 5.534 0 10.741 1.399 15.288 3.862l-0.17-0.084 59.531 31.332c0.362 0.189 0.791 0.3 1.245 0.3s0.883-0.111 1.26-0.308l-0.015 0.007 59.531-31.332c4.377-2.379 9.584-3.778 15.118-3.778 17.748 0 32.136 14.388 32.136 32.136 0 1.988-0.181 3.934-0.526 5.823l0.030-0.197-11.408 66.28c-0.023 0.132-0.036 0.285-0.036 0.44 0 0.774 0.322 1.472 0.838 1.969l0.001 0.001 48.203 46.918c5.927 5.833 9.6 13.942 9.6 22.909 0 16.118-11.866 29.464-27.339 31.78l-0.176 0.022-66.521 9.641c-0.88 0.14-1.609 0.683-2.001 1.431l-0.007 0.015-29.725 60.335c-5.351 10.744-16.257 17.996-28.858 17.996-0.023 0-0.045 0-0.068 0h0.004c-0.019 0-0.042 0-0.064 0-12.6 0-23.507-7.252-28.774-17.81l-0.084-0.186-29.725-60.335c-0.4-0.763-1.129-1.306-1.993-1.444l-0.016-0.002-66.601-9.641c-15.719-2.273-27.661-15.653-27.661-31.823 0-9.078 3.764-17.276 9.816-23.12l0.009-0.009zM38 575.739c0.293 1.073 1.259 1.849 2.407 1.849 0.030 0 0.059-0.001 0.088-0.002h-0.004l66.521 9.641c10.641 1.626 19.441 8.276 24.018 17.409l0.084 0.185 29.886 60.335c0.469 0.867 1.372 1.446 2.41 1.446s1.941-0.579 2.403-1.432l0.007-0.014 29.725-60.335c4.66-9.318 13.461-15.968 23.923-17.572l0.179-0.023 66.521-9.641c1.303-0.224 2.281-1.345 2.281-2.694 0-0.732-0.288-1.396-0.756-1.886l0.001 0.001-48.203-46.918c-5.995-5.843-9.713-13.998-9.713-23.020 0-1.943 0.173-3.846 0.503-5.695l-0.029 0.195 11.408-66.28c0.016-0.112 0.026-0.242 0.026-0.373 0-1.509-1.223-2.732-2.732-2.732-0.449 0-0.872 0.108-1.246 0.3l0.015-0.007-59.531 31.332c-4.343 2.335-9.503 3.707-14.983 3.707s-10.64-1.372-15.155-3.791l0.172 0.084-59.531-31.413c-0.358-0.185-0.782-0.293-1.231-0.293-1.509 0-2.732 1.223-2.732 2.732 0 0.132 0.009 0.261 0.027 0.388l-0.002-0.015 11.408 66.28c0.31 1.675 0.487 3.602 0.487 5.571 0 9.068-3.756 17.259-9.797 23.102l-0.009 0.009-48.203 46.918c-0.498 0.457-0.809 1.111-0.809 1.837 0 0.322 0.061 0.629 0.172 0.911l-0.006-0.017zM280.544 49.358c0 24.448-19.819 44.267-44.267 44.267s-44.267-19.819-44.267-44.267c0-24.448 19.819-44.267 44.267-44.267v0c24.448 0 44.267 19.819 44.267 44.267v0zM221.494 49.358c0 8.164 6.618 14.782 14.782 14.782s14.782-6.618 14.782-14.782c0-8.164-6.618-14.782-14.782-14.782v0c-8.164 0-14.782 6.618-14.782 14.782v0zM775.271 275.673c-1.668 30.961-27.18 55.434-58.407 55.434-0.028 0-0.056 0-0.084 0h-160.674l31.654 84.115c2.159 5.583 3.411 12.044 3.411 18.797 0 23.885-15.65 44.115-37.256 50.994l-0.379 0.104h-0.803c-4.843 1.61-10.418 2.539-16.211 2.539-18.073 0-34.035-9.042-43.607-22.85l-0.115-0.176c-28.389-41.193-56.731-77.060-87.178-110.998l0.894 1.014c-25.494-28.515-51.453-54.73-78.685-79.574l-0.851-0.765c-11.872 14.182-29.582 23.138-49.384 23.138-0.037 0-0.073 0-0.11 0h-254.347c-8.164 0-14.782-6.618-14.782-14.782s6.618-14.782 14.782-14.782v0h254.353c19.434 0 35.188-15.754 35.188-35.188v-222.378c0-19.434-15.754-35.188-35.188-35.188v0h-254.353c-8.164 0-14.782-6.618-14.782-14.782s6.618-14.782 14.782-14.782v0h254.353c0.040 0 0.087 0 0.135 0 17.535 0 33.429 7.022 45.025 18.407l-0.010-0.010c51.542-13.017 110.712-20.486 171.627-20.486 3.805 0 7.603 0.029 11.395 0.087l-0.572-0.007c57.625 0.323 114.019 4.138 169.383 11.243l-6.857-0.718c28.663 3.605 50.614 27.828 50.614 57.177 0 0.008 0 0.017 0 0.025v-0.001 5.383c0 0.006 0 0.013 0 0.020 0 11.686-3.509 22.552-9.531 31.602l0.131-0.21c22.288 8.292 37.879 29.386 37.879 54.121 0 0.744-0.014 1.485-0.042 2.223l0.003-0.106c-0.369 10.961-3.796 21.051-9.449 29.531l0.13-0.207c22.22 8.133 37.792 29.095 37.792 53.695 0 16.972-7.412 32.212-19.176 42.661l-0.058 0.051c1.125 0.964 2.169 2.008 3.214 3.053 10.027 10.282 16.213 24.352 16.213 39.866 0 0.954-0.023 1.903-0.070 2.846l0.005-0.133zM646.728 216.062h70.216c0.112 0.002 0.244 0.002 0.376 0.002 15.219 0 27.67-11.854 28.622-26.833l0.004-0.083c0.012-0.311 0.020-0.677 0.020-1.044 0-15.441-12.517-27.958-27.958-27.958-0.007 0-0.014 0-0.021 0h-71.42c-8.164 0-14.782-6.618-14.782-14.782s6.618-14.782 14.782-14.782v0h41.696c0.089 0.001 0.195 0.002 0.3 0.002 15.235 0 27.703-11.845 28.697-26.828l0.005-0.087c0.012-0.311 0.020-0.677 0.020-1.044 0-15.441-12.517-27.958-27.958-27.958-0.007 0-0.014 0-0.021 0h-42.739c-8.164 0-14.782-6.618-14.782-14.782s6.618-14.782 14.782-14.782v0h14.22c15.422-0.046 27.912-12.536 27.958-27.954v-5.146c0-0.013 0-0.028 0-0.043 0-14.296-10.699-26.093-24.527-27.821l-0.137-0.014c-42.643-6.62-91.831-10.402-141.901-10.402-64.781 0-128.084 6.33-189.323 18.406l6.172-1.015c1.987 5.92 3.133 12.738 3.133 19.823 0 0.007 0 0.015 0 0.022v-0.001 222.137c0 1.767 0 3.535 0 5.222l2.892 11.488c0.267 0.995 0.802 1.842 1.522 2.486l0.005 0.004c28.945 26.356 55.691 53.331 81.012 81.608l0.934 1.060c30.445 33.89 59.63 70.805 86.431 109.498l2.424 3.7c4.325 6.14 11.384 10.102 19.369 10.102 2.64 0 5.18-0.433 7.551-1.233l-0.167 0.049h0.803c9.843-3.181 16.838-12.264 16.838-22.981 0-2.998-0.548-5.869-1.548-8.517l0.055 0.166-34.144-90.783c-1.002-2.577-1.582-5.559-1.582-8.677 0-13.577 11.007-24.584 24.584-24.584 0.020 0 0.039 0 0.059 0h167.584c0.089 0.001 0.195 0.002 0.3 0.002 15.235 0 27.703-11.845 28.697-26.828l0.005-0.087c0.012-0.311 0.020-0.677 0.020-1.044 0-15.441-12.517-27.958-27.958-27.958-0.007 0-0.014 0-0.021 0h-71.26c-8.164 0-14.782-6.618-14.782-14.782s6.618-14.782 14.782-14.782v0z" />
<glyph unicode="&#xe933;" glyph-name="home" d="M935.7 642.402v0l-316.337 277.346c-27.851 24.987-64.858 40.265-105.433 40.265s-77.582-15.278-105.581-40.396l0.148 0.131-316.416-277.346c-32.408-29.087-52.702-71.11-52.702-117.873 0-0.459 0.002-0.917 0.006-1.375v0.070-460.8c0-87.354 70.815-158.169 158.169-158.169h632.674c87.354 0 158.169 70.815 158.169 158.169v0 461.351c0.001 0.225 0.002 0.49 0.002 0.756 0 46.761-20.292 88.783-52.551 117.74l-0.147 0.13zM619.362 9.728h-210.865v263.562c0 29.104 23.593 52.697 52.697 52.697v0h105.472c29.104 0 52.697-23.593 52.697-52.697v0zM883.003 62.425c0-29.104-23.593-52.697-52.697-52.697v0h-105.63v263.562c0 87.299-70.725 158.079-158.003 158.169h-105.48c-87.354 0-158.169-70.815-158.169-158.169v0-263.641h-105.472c-29.104 0-52.697 23.593-52.697 52.697v0 461.43c0.074 15.679 6.985 29.729 17.901 39.334l0.058 0.050 316.258 276.795c9.235 8.159 21.444 13.139 34.816 13.139s25.581-4.981 34.873-13.188l-0.057 0.049 316.337-276.795c10.975-9.655 17.885-23.706 17.959-39.371v-0.013z" />
<glyph unicode="&#xe934;" glyph-name="staring" horiz-adv-x="1023" d="M513.079 449.529c-28.406 0-51.434-23.028-51.434-51.434s23.028-51.434 51.434-51.434c28.406 0 51.434 23.028 51.434 51.434v0c0 28.406-23.028 51.434-51.434 51.434v0zM1012.221 570.74c-57.852 225.278-259.118 389.099-498.647 389.099s-440.795-163.822-497.868-385.534l-0.779-3.565c-9.48-36.444-14.922-78.282-14.922-121.391s5.442-84.947 15.678-124.865l-0.755 3.474c46.267-186.226 189.517-330.254 371.761-376.888l3.562-0.773c36.267-9.466 77.902-14.901 120.806-14.901s84.539 5.435 124.254 15.653l-3.447-0.753c185.549 46.951 328.82 190.222 375.008 372.218l0.765 3.555c9.48 36.444 14.922 78.282 14.922 121.391s-5.442 84.947-15.678 124.865l0.755-3.474zM513.079 860.819c171.417-0.167 318.267-105.173 379.898-254.347l1-2.732h-761.885c62.642 151.933 209.535 256.951 380.971 257.079h0.016zM101.789 449.529c0.171 18.306 1.473 36.134 3.839 53.625l-0.243-2.191h99.63v-102.778h-98.911c-2.124 15.3-3.426 33.128-3.595 51.227l-0.002 0.206zM358.868 68.631c-103.478 42.676-184.060 123.23-225.775 223.958l-1.001 2.729h123.909c56.763 0 102.778-46.015 102.778-102.778v0zM564.513 41.655c-15.3-2.124-33.128-3.426-51.227-3.595l-0.206-0.002c-18.306 0.171-36.134 1.473-53.625 3.839l2.191-0.243v98.911h103.047zM571.706 243.704h-116.895c-19.279 72.255-75.089 128.005-145.941 146.872l-1.436 0.325v110.061h411.29v-110.061c-72.1-19.274-127.744-74.919-146.69-145.58l-0.328-1.438zM667.29 68.361v124.178c0 56.763 46.015 102.778 102.778 102.778v0h123.909c-42.696-103.441-123.245-183.991-223.958-225.686l-2.729-1.001zM920.773 398.185h-98.911v102.778h98.911c2.124-15.3 3.426-33.128 3.595-51.227l0.002-0.206c-0.171-18.306-1.473-36.134-3.839-53.625l0.243 2.191z" />
<glyph unicode="&#xe935;" glyph-name="pencil" d="M978.603 914.603c-28.093 28.042-66.876 45.383-109.71 45.383s-81.616-17.341-109.712-45.385l-696.472-696.472c-38.737-38.539-62.71-91.887-62.71-150.833 0-0.172 0-0.345 0.001-0.517v0.027-87.973c0-23.656 19.177-42.832 42.832-42.832v0h87.973c0.161 0 0.352-0.001 0.544-0.001 58.93 0 112.26 23.974 150.77 62.7l696.484 696.484c28.042 28.093 45.383 66.876 45.383 109.71s-17.341 81.616-45.385 109.712l0.002-0.002zM221.984 59.239c-23.296-23.136-55.361-37.468-90.774-37.574h-45.546v45.141c0.008 35.473 14.417 67.579 37.699 90.791l528.482 528.61 98.489-98.489zM918.073 755.841l-107.337-107.337-98.489 98.232 107.337 107.337c12.58 12.548 29.942 20.307 49.116 20.307 38.412 0 69.551-31.139 69.551-69.551 0-19.238-7.811-36.652-20.434-49.243l-0.001-0.001z" />
<glyph unicode="&#xe936;" glyph-name="rightarrow" d="M707.704 945.423c9.653 9.631 22.977 15.586 37.692 15.586 29.475 0 53.368-23.894 53.368-53.368 0-15.794-6.861-29.985-17.764-39.757l-0.050-0.044-439.115-414.72 439.115-414.72c10.954-9.816 17.815-24.007 17.815-39.801 0-29.475-23.894-53.368-53.368-53.368-14.715 0-28.039 5.955-37.693 15.587l0.001-0.001-480.196 453.512c-10.303 9.751-16.716 23.522-16.716 38.792s6.412 29.041 16.691 38.768l0.025 0.023 480.196 453.512z" />
<glyph unicode="&#xe937;" glyph-name="twitter" d="M512 960c-282.77 0-512-229.23-512-512s229.23-512 512-512c282.77 0 512 229.23 512 512v0c-0.021 282.762-229.239 511.98-511.999 512h-0.001zM745.613 560.788q0.327-7.565 0.327-15.203c0.005-0.672 0.008-1.467 0.008-2.263 0-183.418-148.689-332.107-332.107-332.107-0.795 0-1.59 0.003-2.384 0.008l0.122-0.001c-0.104 0-0.228 0-0.352 0-66.786 0-128.975 19.681-181.083 53.56l1.288-0.785c8.382-1.042 18.084-1.637 27.925-1.637 0.041 0 0.083 0 0.124 0h-0.006c0.196-0.001 0.427-0.001 0.659-0.001 55.124 0 105.829 18.915 145.98 50.609l-0.499-0.38c-51.214 0.991-94.332 34.554-109.568 80.786l-0.237 0.832c6.668-1.348 14.334-2.119 22.179-2.119 11.003 0 21.651 1.517 31.747 4.354l-0.825-0.198c-54.173 11.213-94.311 58.535-94.311 115.232 0 0.023 0 0.046 0 0.069v-0.004c0 0.546 0 1.018 0 1.491 15.348-8.653 33.599-13.976 53.042-14.545l0.169-0.004c-31.714 21.402-52.293 57.204-52.293 97.813 0 21.768 5.913 42.155 16.221 59.643l-0.3-0.55c58.215-71.219 144.331-117.739 241.422-122.756l0.812-0.033c-1.935 7.986-3.044 17.155-3.044 26.582 0 64.942 52.646 117.589 117.589 117.589 33.788 0 64.247-14.25 85.695-37.069l0.057-0.061c28.147 5.658 53.15 15.551 75.699 29.109l-1.065-0.594c-9.121-27.691-27.39-50.275-51.159-64.7l-0.524-0.295c25.038 3.058 47.826 9.601 68.941 19.184l-1.472-0.598c-16.119-23.913-35.623-44.112-58.094-60.485l-0.682-0.474z" />
<glyph unicode="&#xe938;" glyph-name="unlock" d="M728.292 632.206h-409.6v40.96c0 0.020 0 0.043 0 0.066 0 113.108 91.692 204.8 204.8 204.8 76.719 0 143.585-42.184 178.668-104.622l0.532-1.029c7.139-12.671 20.507-21.088 35.84-21.088 22.643 0 40.999 18.356 40.999 40.999 0 7.31-1.913 14.173-5.266 20.116l0.106-0.205c-49.862 88.855-143.474 147.912-250.88 147.912-158.351 0-286.72-128.369-286.72-286.72 0-0.081 0-0.161 0-0.242v0.013-58.368c-72.878-32.389-122.797-104.107-122.88-187.495v-245.771c0-113.108 91.692-204.8 204.8-204.8v0h409.6c113.108 0 204.8 91.692 204.8 204.8v0 245.874c0 113.108-91.692 204.8-204.8 204.8v0zM564.452 263.566c0-22.622-18.338-40.96-40.96-40.96s-40.96 18.338-40.96 40.96v0 82.261c0 22.622 18.338 40.96 40.96 40.96s40.96-18.338 40.96-40.96v0z" />
<glyph unicode="&#xe939;" glyph-name="Group-6623" horiz-adv-x="1046" d="M1001.636 69.788h-934.624c-24.471 0.044-44.313 19.803-44.491 44.238v801.090c0.045 24.554 19.937 44.446 44.487 44.491h934.628c0 0 0 0 0 0 24.587 0 44.525-19.91 44.57-44.487v-801.077c-0.179-24.479-20.064-44.255-44.569-44.255 0 0-0.001 0-0.001 0v0zM67.012 915.115v-801.073h934.624v801.073zM1046.206 203.024h-1023.685v712.091c0.045 24.554 19.937 44.446 44.487 44.491h934.628c0 0 0 0 0 0 24.587 0 44.525-19.91 44.57-44.487v-0.004zM67.012 247.515h934.624v667.6h-934.624zM734.612-64.079h-400.576v178.121h400.576zM378.606-19.588h311.515v89.376h-311.594zM756.897-64h-445.067c-11.724 0.719-20.961 10.404-20.961 22.245s9.236 21.526 20.898 22.242l0.063 0.003h445.067c11.724-0.719 20.961-10.404 20.961-22.245s-9.236-21.526-20.898-22.242l-0.063-0.003zM378.921 425.558c-36.879 0-66.776 29.897-66.776 66.776s29.897 66.776 66.776 66.776c36.879 0 66.776-29.897 66.776-66.776v0c-0.045-36.889-29.959-66.776-66.854-66.776-0.083 0-0.166 0-0.249 0h0.013zM378.921 514.54c-12.308 0-22.285-9.977-22.285-22.285s9.977-22.285 22.285-22.285c12.308 0 22.285 9.977 22.285 22.285v0c0 0.001 0 0.001 0 0.002 0 12.308-9.977 22.285-22.285 22.285-0.111 0-0.221-0.001-0.332-0.002h0.017zM445.697 203.024h-133.867c-24.554 0.045-44.446 19.937-44.491 44.487v66.78c0.045 36.861 29.914 66.731 66.771 66.776h88.986c36.861-0.045 66.731-29.914 66.776-66.771v-66.78c-0.045-24.554-19.937-44.446-44.487-44.491h-0.004zM334.43 336.891c-12.308 0-22.285-9.977-22.285-22.285v0-66.776h133.867v66.776c0 12.308-9.977 22.285-22.285 22.285v0zM690.436 425.873c-36.879 0-66.776 29.897-66.776 66.776s29.897 66.776 66.776 66.776c36.879 0 66.776-29.897 66.776-66.776v0c0-0.070 0-0.153 0-0.237 0-36.923-29.932-66.855-66.855-66.855-0.083 0-0.166 0-0.249 0h0.013zM690.436 514.855c-12.308 0-22.285-9.977-22.285-22.285s9.977-22.285 22.285-22.285c12.308 0 22.285 9.977 22.285 22.285v0c-0.176 12.172-10.085 21.972-22.283 21.972-0.112 0-0.223-0.001-0.334-0.002h0.017zM757.212 203.339h-133.867c-24.554 0.045-44.446 19.937-44.491 44.487v66.78c0.045 36.861 29.914 66.731 66.771 66.776h88.986c36.861-0.045 66.731-29.914 66.776-66.771v-66.78c0-0.070 0.001-0.153 0.001-0.236 0-24.588-19.91-44.525-44.487-44.57h-0.004zM645.315 336.497c-12.308 0-22.285-9.977-22.285-22.285v0-66.776h133.867v66.776c0 12.308-9.977 22.285-22.285 22.285v0zM534.364 737.073c-3.056 0.050-5.945 0.711-8.567 1.867l0.142-0.056c-2.819 1.194-5.241 2.757-7.345 4.665l0.022-0.019c-3.99 3.99-6.458 9.502-6.458 15.59 0 0.056 0 0.111 0.001 0.167v-0.009c0.13 6.117 2.564 11.641 6.467 15.76l-0.010-0.011 3.307 2.677c1.156 0.776 2.484 1.442 3.894 1.932l0.122 0.037c1.2 0.755 2.593 1.351 4.077 1.713l0.096 0.020c1.266 0.306 2.719 0.482 4.213 0.482s2.947-0.176 4.34-0.507l-0.127 0.025c1.587-0.226 3.020-0.696 4.327-1.374l-0.075 0.035c1.446-0.466 2.702-1.136 3.809-1.99l-0.029 0.021c1.239-0.824 2.321-1.705 3.31-2.68l-0.003 0.003c2.092-2.009 3.751-4.452 4.834-7.186l0.048-0.137c1.11-2.48 1.773-5.37 1.811-8.412v-0.014c-0.089-12.272-10.013-22.196-22.276-22.285h-0.008zM445.382 737.073c-0.059-0.001-0.129-0.001-0.198-0.001-12.177 0-22.049 9.871-22.049 22.049 0 3.13 0.652 6.108 1.828 8.805l-0.055-0.142c1.076 2.854 2.656 5.294 4.649 7.327l-0.003-0.003c4.032 4.028 9.6 6.518 15.749 6.518 12.301 0 22.275-9.967 22.285-22.266v-0.001c0.001-0.071 0.001-0.154 0.001-0.238 0-12.177-9.871-22.049-22.049-22.049-0.084 0-0.167 0-0.25 0.001h0.013zM356.4 737.073c-0.071-0.001-0.154-0.001-0.238-0.001-12.177 0-22.049 9.871-22.049 22.049 0 0.084 0 0.167 0.001 0.25v-0.013c-0.003 0.118-0.004 0.257-0.004 0.397 0 2.918 0.67 5.68 1.864 8.14l-0.049-0.111c1.135 2.835 2.706 5.266 4.657 7.335l-0.011-0.011c4.16 3.733 9.688 6.016 15.749 6.016s11.589-2.283 15.771-6.035l-0.022 0.019c1.94-2.057 3.511-4.488 4.591-7.169l0.055-0.154c1.121-2.555 1.773-5.533 1.773-8.663 0-12.177-9.871-22.049-22.049-22.049-0.070 0-0.139 0-0.209 0.001h0.011zM712.406 737.073c-0.071-0.001-0.154-0.001-0.238-0.001-12.177 0-22.049 9.871-22.049 22.049 0 0.084 0 0.167 0.001 0.25v-0.013c-0.003 0.118-0.004 0.257-0.004 0.397 0 2.918 0.67 5.68 1.864 8.14l-0.049-0.111c2.075 5.62 6.428 9.973 11.909 12.003l0.139 0.045c2.554 1.11 5.529 1.756 8.654 1.756 6.081 0 11.591-2.444 15.601-6.404l-0.002 0.002c1.94-2.057 3.511-4.488 4.591-7.169l0.055-0.154c1.121-2.555 1.773-5.533 1.773-8.663 0-12.177-9.871-22.049-22.049-22.049-0.070 0-0.139 0-0.209 0.001h0.011zM623.424 737.073c-0.059-0.001-0.129-0.001-0.198-0.001-12.177 0-22.049 9.871-22.049 22.049 0 3.13 0.652 6.108 1.828 8.805l-0.055-0.142c1.076 2.854 2.656 5.294 4.649 7.327l-0.003-0.003c0.996 0.906 2.074 1.784 3.198 2.602l0.109 0.076c1.156 0.776 2.484 1.442 3.894 1.932l0.122 0.037c1.156 0.7 2.493 1.267 3.912 1.631l0.104 0.023c1.301 0.307 2.796 0.482 4.331 0.482s3.030-0.176 4.464-0.508l-0.133 0.026c1.587-0.226 3.020-0.696 4.327-1.374l-0.075 0.035c1.446-0.466 2.702-1.136 3.809-1.99l-0.029 0.021c1.274-0.742 2.364-1.631 3.297-2.665l0.011-0.012c2.094-2.007 3.754-4.451 4.834-7.186l0.048-0.137c1.1-2.48 1.762-5.369 1.811-8.407v-0.018c-0.089-12.272-10.013-22.196-22.276-22.285h-0.008zM690.121 603.679c-0.031 0-0.068 0-0.105 0-10.020 0-19.266 3.312-26.704 8.902l0.114-0.082-47.247 35.593h-163.475l-47.247-35.593c-7.355-5.52-16.637-8.84-26.695-8.84s-19.339 3.32-26.81 8.923l0.116-0.083-47.247 35.593h-14.804c-0.117-0.001-0.255-0.002-0.394-0.002-24.588 0-44.526 19.911-44.57 44.488v133.871c0.223 24.418 20.047 44.132 44.487 44.176h489.562c24.554-0.045 44.446-19.937 44.491-44.487v-133.871c-0.045-24.554-19.937-44.446-44.487-44.491h-14.808l-47.247-35.593c-7.242-5.318-16.333-8.511-26.17-8.511-0.267 0-0.534 0.002-0.801 0.007l0.040-0.001zM452.784 692.661h163.16c10.063-0.030 19.341-3.368 26.81-8.981l-0.115 0.083 47.247-35.593 47.247 35.593c7.35 5.54 16.63 8.88 26.69 8.898h14.808v133.867h-489.085v-133.867h14.804c10.063-0.030 19.341-3.368 26.81-8.981l-0.115 0.083 47.247-35.593 47.247 35.593c7.359 5.509 16.641 8.822 26.697 8.822 0.165 0 0.33-0.001 0.495-0.003h-0.025z" />
<glyph unicode="&#xe93a;" glyph-name="upload-" horiz-adv-x="1260" d="M39.396 487.252c21.758 0 39.396 17.638 39.396 39.396v275.769c0 43.515 35.276 78.791 78.791 78.791v0h945.495c43.515 0 78.791-35.276 78.791-78.791v0-275.698c0-21.758 17.638-39.396 39.396-39.396s39.396 17.638 39.396 39.396v0 275.698c0 87.030-70.552 157.583-157.583 157.583v0h-945.495c-87.030 0-157.583-70.552-157.583-157.583v0-275.698c0-21.758 17.638-39.396 39.396-39.396v0zM393.885 447.713c7.13-7.133 16.981-11.545 27.863-11.545s20.734 4.412 27.863 11.545l180.647 180.647 180.36-180.647c7.131-7.131 16.982-11.541 27.863-11.541 21.763 0 39.405 17.642 39.405 39.405 0 10.881-4.411 20.733-11.541 27.863l-208.439 208.51c-7.133 7.155-16.999 11.581-27.899 11.581s-20.766-4.427-27.898-11.58l-208.44-208.511c-7.133-7.13-11.545-16.981-11.545-27.863s4.412-20.734 11.545-27.863v0zM630.187-64.072c21.758 0 39.396 17.638 39.396 39.396v0 630.187c0 21.758-17.638 39.396-39.396 39.396s-39.396-17.638-39.396-39.396v0-630.33c0.081-21.696 17.688-39.252 39.395-39.252 0 0 0 0 0 0v0z" />
</font>
</defs>
</svg>
