<svg xmlns="http://www.w3.org/2000/svg" width="12.757" height="11.481" viewBox="0 0 12.757 11.481">
  <path id="bag" d="M13.162,4.914H10.93V4.276A1.277,1.277,0,0,0,9.654,3H7.1A1.277,1.277,0,0,0,5.827,4.276v.638H3.595A1.6,1.6,0,0,0,2,6.508v6.378a1.6,1.6,0,0,0,1.595,1.595h9.568a1.6,1.6,0,0,0,1.595-1.595V6.508A1.6,1.6,0,0,0,13.162,4.914Zm-6.7-.638A.638.638,0,0,1,7.1,3.638H9.654a.638.638,0,0,1,.638.638v.638H6.465Zm7.654,8.611a.958.958,0,0,1-.957.957H3.595a.958.958,0,0,1-.957-.957V8.758L6.364,10a.327.327,0,0,0,.1.016h3.827a.326.326,0,0,0,.1-.016l3.726-1.242Zm0-4.78a.312.312,0,0,0-.1.012L10.24,9.378H6.517L2.739,8.119a.313.313,0,0,0-.1-.012v-1.6a.958.958,0,0,1,.957-.957h9.568a.958.958,0,0,1,.957.957Z" transform="translate(-2 -3)" fill="#636161"/>
</svg>
