<svg xmlns="http://www.w3.org/2000/svg" width="8.657" height="10.581" viewBox="0 0 8.657 10.581">
  <path id="Path_14829" data-name="Path 14829" d="M10.7,2.962V2.321A.321.321,0,0,0,10.374,2h-.319a.321.321,0,0,0-.321.321v.641m-4.81,0V2.321A.321.321,0,0,0,4.6,2H4.283a.321.321,0,0,0-.321.321v.641M3,3.924h8.657v.962H3ZM3,5.848h8.657v6.733H3Zm.962.962v.962h.962V6.81Zm1.924,0v.962h.962V6.81Zm1.924,0v.962h.962V6.81Zm1.924,0v.962H10.7V6.81ZM3.962,8.733V9.7h.962V8.733Zm1.924,0V9.7h.962V8.733Zm1.924,0V9.7h.962V8.733Zm1.924,0V9.7H10.7V8.733ZM3.962,10.657v.962h.962v-.962Zm1.924,0v.962h.962v-.962Zm1.924,0v.962h.962v-.962Z" transform="translate(-3 -2)" fill="#636161"/>
</svg>
