<svg xmlns="http://www.w3.org/2000/svg" width="15" height="15" viewBox="0 0 15 15">
  <g id="Group_6567" data-name="Group 6567" transform="translate(-139 -107)">
    <circle id="Ellipse_55" data-name="Ellipse 55" cx="7.5" cy="7.5" r="7.5" transform="translate(139 107)" fill="#e67513"/>
    <g id="Group_6566" data-name="Group 6566">
      <g id="Group_2857" data-name="Group 2857" transform="translate(142.687 109.586)">
        <g id="Icon-Location">
          <path id="Fill-55" d="M-212.986-357.762l-.2-.229c-.136-.166-3.61-3.889-3.61-6.115a3.673,3.673,0,0,1,3.814-3.494,3.687,3.687,0,0,1,3.814,3.494c0,2.225-3.474,5.969-3.61,6.115l-.2.229Zm0-9.36a3.142,3.142,0,0,0-3.269,3c0,1.747,2.52,4.721,3.269,5.574.749-.853,3.269-3.806,3.269-5.574a3.142,3.142,0,0,0-3.269-3Z" transform="translate(216.8 367.6)" fill="#fff"/>
          <path id="Fill-56" d="M-204.947-354.294a1.463,1.463,0,0,1-1.453-1.453,1.463,1.463,0,0,1,1.453-1.453,1.463,1.463,0,0,1,1.453,1.453,1.463,1.463,0,0,1-1.453,1.453Zm0-2.361a.911.911,0,0,0-.908.908.911.911,0,0,0,.908.908.911.911,0,0,0,.908-.908.911.911,0,0,0-.908-.908Z" transform="translate(208.761 359.29)" fill="#fff"/>
        </g>
      </g>
    </g>
  </g>
</svg>
