<svg xmlns="http://www.w3.org/2000/svg" width="15" height="15" viewBox="0 0 15 15">
  <g id="Group_6533" data-name="Group 6533" transform="translate(0 0.326)">
    <circle id="Ellipse_56" data-name="Ellipse 56" cx="7.5" cy="7.5" r="7.5" transform="translate(0 -0.326)" fill="#e67513"/>
    <path id="Path_11813" data-name="Path 11813" d="M25.142,82.7H17.971a.95.95,0,0,0-.949.949v4.678a.95.95,0,0,0,.949.949h7.171a.95.95,0,0,0,.949-.949V83.649A.95.95,0,0,0,25.142,82.7Zm-1.687,3.287,2.256-1.77v3.96Zm-5.485-2.907h7.171a.57.57,0,0,1,.569.569v.085L22.061,86.6a.758.758,0,0,1-.934,0L17.4,83.733v-.084A.57.57,0,0,1,17.971,83.079ZM19.724,86,17.4,88.184V84.212Zm5.417,2.9H17.971a.569.569,0,0,1-.485-.271l2.543-2.392.865.665a1.137,1.137,0,0,0,1.4,0l.86-.675,2.473,2.4A.569.569,0,0,1,25.142,88.9Z" transform="translate(-14.022 -78.718)" fill="#fff"/>
  </g>
</svg>
