<svg xmlns="http://www.w3.org/2000/svg" width="22.043" height="15.745" viewBox="0 0 22.043 15.745">
  <path id="Path_14835" data-name="Path 14835" d="M16.171,16.234h1.563c-.731,2.117-1.355,3.131-3.433,4a.787.787,0,0,0,.3,1.514h0c4.334-.008,6.823-1.745,8.588-5.992a10.842,10.842,0,0,0,.849-4.242A8.41,8.41,0,0,0,22.3,6.361.787.787,0,0,0,21.642,6H16.171a2.364,2.364,0,0,0-2.362,2.362v5.511A2.364,2.364,0,0,0,16.171,16.234Zm-11.809,0H5.925c-.731,2.117-1.355,3.131-3.433,4a.787.787,0,0,0,.3,1.514h0C7.13,21.737,9.62,20,11.385,15.753a10.842,10.842,0,0,0,.849-4.242A8.41,8.41,0,0,0,10.5,6.361.787.787,0,0,0,9.833,6H4.362A2.364,2.364,0,0,0,2,8.362v5.511A2.364,2.364,0,0,0,4.362,16.234Z" transform="translate(-2 -6)" fill="#fea30b"/>
</svg>
