<svg xmlns="http://www.w3.org/2000/svg" width="9.636" height="9.65" viewBox="0 0 9.636 9.65">
  <path id="Path_15366" data-name="Path 15366" d="M6.855,6.881a.484.484,0,1,0,.484.484A.484.484,0,0,0,6.855,6.881Zm4.7-1.143a4.845,4.845,0,0,0-9.4,0h0a4.724,4.724,0,0,0,0,2.287h0A4.845,4.845,0,0,0,5.7,11.581h0a4.685,4.685,0,0,0,2.277,0h0a4.845,4.845,0,0,0,3.542-3.542h0a4.724,4.724,0,0,0,0-2.287Zm-4.7-2.732a3.876,3.876,0,0,1,3.59,2.422H3.265a3.876,3.876,0,0,1,3.59-2.422ZM2.979,6.881A4,4,0,0,1,3.013,6.4h.935v.969H3.013a4,4,0,0,1-.034-.484ZM5.4,10.471A3.876,3.876,0,0,1,3.265,8.335H4.433A.969.969,0,0,1,5.4,9.3Zm1.938.252a4,4,0,0,1-.484.034,4,4,0,0,1-.484-.034V9.788H7.34Zm.068-1.9H6.3A1.938,1.938,0,0,0,4.917,7.434V6.4H8.793V7.434A1.938,1.938,0,0,0,7.407,8.819Zm.9,1.652V9.3a.969.969,0,0,1,.969-.969h1.168A3.876,3.876,0,0,1,8.309,10.471ZM10.7,7.366H9.762V6.4H10.7a4,4,0,0,1,.034.484A4,4,0,0,1,10.7,7.366Z" transform="translate(-2.02 -2.071)" fill="#8d8a8a"/>
</svg>
