<svg id="Component_160_1" data-name="Component 160 – 1" xmlns="http://www.w3.org/2000/svg" width="28.154" height="28.154" viewBox="0 0 28.154 28.154">
  <path id="Path_3981" data-name="Path 3981" d="M212.389,209.694A2.694,2.694,0,1,1,209.694,207,2.694,2.694,0,0,1,212.389,209.694Zm0,0" transform="translate(-195.617 -195.618)" fill="#8d8a8a"/>
  <path id="Path_3982" data-name="Path 3982" d="M148.413,137.348a2.677,2.677,0,0,0-1.534-1.534,4.473,4.473,0,0,0-1.5-.278c-.853-.039-1.108-.047-3.266-.047s-2.414.008-3.266.047a4.476,4.476,0,0,0-1.5.278,2.678,2.678,0,0,0-1.534,1.534,4.474,4.474,0,0,0-.278,1.5c-.039.852-.047,1.108-.047,3.266s.008,2.414.047,3.266a4.471,4.471,0,0,0,.278,1.5,2.677,2.677,0,0,0,1.534,1.534,4.467,4.467,0,0,0,1.5.278c.852.039,1.108.047,3.266.047s2.414-.008,3.266-.047a4.468,4.468,0,0,0,1.5-.278,2.677,2.677,0,0,0,1.534-1.534,4.476,4.476,0,0,0,.278-1.5c.039-.853.047-1.108.047-3.266s-.008-2.414-.047-3.266A4.468,4.468,0,0,0,148.413,137.348Zm-6.3,8.918a4.151,4.151,0,1,1,4.151-4.151A4.151,4.151,0,0,1,142.112,146.266Zm4.315-7.5a.97.97,0,1,1,.97-.97A.97.97,0,0,1,146.427,138.77Zm0,0" transform="translate(-128.035 -128.039)" fill="#8d8a8a"/>
  <path id="Path_3983" data-name="Path 3983" d="M14.077,0A14.077,14.077,0,1,0,28.154,14.077,14.078,14.078,0,0,0,14.077,0Zm8.035,17.409a5.93,5.93,0,0,1-.376,1.962,4.133,4.133,0,0,1-2.364,2.364,5.935,5.935,0,0,1-1.962.376c-.862.039-1.137.049-3.333.049s-2.471-.009-3.333-.049a5.935,5.935,0,0,1-1.962-.376,4.133,4.133,0,0,1-2.364-2.364,5.929,5.929,0,0,1-.376-1.962c-.04-.862-.049-1.138-.049-3.333s.009-2.471.049-3.333a5.931,5.931,0,0,1,.375-1.962A4.136,4.136,0,0,1,8.782,6.418a5.936,5.936,0,0,1,1.962-.376c.862-.039,1.137-.049,3.333-.049s2.471.009,3.333.049a5.937,5.937,0,0,1,1.962.375,4.134,4.134,0,0,1,2.364,2.364,5.93,5.93,0,0,1,.376,1.962c.039.862.049,1.137.049,3.333S22.151,16.547,22.112,17.409Zm0,0" fill="#8d8a8a"/>
</svg>
