<svg id="linkedin" xmlns="http://www.w3.org/2000/svg" width="28.154" height="28.154" viewBox="0 0 28.154 28.154">
  <path id="linkedin-2" data-name="linkedin" d="M14.077,0A14.077,14.077,0,1,0,28.154,14.077,14.078,14.078,0,0,0,14.077,0ZM9.986,21.28H6.558V10.966H9.986ZM8.272,9.558H8.25A1.787,1.787,0,1,1,8.3,5.994a1.788,1.788,0,1,1-.023,3.564ZM22.349,21.28H18.921V15.762c0-1.387-.5-2.332-1.737-2.332a1.877,1.877,0,0,0-1.759,1.254,2.348,2.348,0,0,0-.113.837v5.76H11.884s.045-9.347,0-10.314h3.428v1.46a3.4,3.4,0,0,1,3.09-1.7c2.256,0,3.947,1.474,3.947,4.642Zm0,0" fill="#8d8a8a"/>
</svg>
