<svg xmlns="http://www.w3.org/2000/svg" width="9.399" height="12.121" viewBox="0 0 9.399 12.121">
  <g id="Group_2788" data-name="Group 2788" transform="translate(-15.2 -8.4)">
    <g id="Icon-Location" transform="translate(15.2 8.4)">
      <path id="Fill-55" d="M-212.1-355.479l-.252-.282c-.168-.2-4.448-4.792-4.448-7.534a4.525,4.525,0,0,1,4.7-4.305,4.543,4.543,0,0,1,4.7,4.305c0,2.742-4.28,7.354-4.448,7.534l-.252.282Zm0-11.531a3.871,3.871,0,0,0-4.028,3.69c0,2.153,3.1,5.817,4.028,6.868.923-1.051,4.028-4.689,4.028-6.868a3.871,3.871,0,0,0-4.028-3.69Z" transform="translate(216.8 367.6)" fill="#636161"/>
      <path id="Fill-56" d="M-204.61-353.62a1.8,1.8,0,0,1-1.79-1.79,1.8,1.8,0,0,1,1.79-1.79,1.8,1.8,0,0,1,1.79,1.79,1.8,1.8,0,0,1-1.79,1.79Zm0-2.909a1.122,1.122,0,0,0-1.119,1.119,1.122,1.122,0,0,0,1.119,1.119,1.122,1.122,0,0,0,1.119-1.119,1.122,1.122,0,0,0-1.119-1.119Z" transform="translate(209.309 359.775)" fill="#636161"/>
    </g>
  </g>
</svg>
